<svg id="Ebene_1" data-name="Ebene 1" xmlns="http://www.w3.org/2000/svg" viewBox="0 0 495.09 390.65"><defs><style>.cls-1{fill:#fff;}</style></defs><path class="cls-1" d="M596.55,164.22l27.07-26.09-37.16-35.82-38.35,37C512.51,125.9,470,118.57,421.8,118.57c-153.48,0-248.4,71-248.4,178.72,0,56.44,25.81,102.53,71.78,133.92l-26.91,25.94L255.43,493l38.25-36.86c35.68,13.33,78.33,20.6,126.9,20.6,153.24,0,247.91-70.55,247.91-179.42C668.49,241.56,642.54,195.63,596.55,164.22ZM314,297.29c0-48.92,40.5-82.54,107.12-82.54a159.67,159.67,0,0,1,43,5.55L332.34,347.21C320.56,333.77,314,316.89,314,297.29Zm107.12,83a156.83,156.83,0,0,1-42.88-5.64l131.8-127c11.7,13.39,18.2,30.19,18.2,49.65C528.19,346.67,487.44,380.3,421.07,380.3Z" transform="translate(-173.4 -102.31)"/></svg>