<svg width="216" height="440" viewBox="0 0 216 440" fill="none" xmlns="http://www.w3.org/2000/svg">
<path d="M0 73.3333V146.667H146.667V0H0V73.3333ZM125.714 73.3333V125.714H20.9524V20.9524H125.714V73.3333Z" fill="black"/>
<path d="M167.619 20.9524V41.9048H188.571V62.8571H230.476V104.762H209.524V146.667H188.571V83.8095H167.619V188.571H146.667V167.619H104.762V188.571H83.8095V209.524H41.9048V230.476H20.9524V188.571H62.8571V167.619H0V272.381H20.9524V251.429H41.9048V272.381H83.8095V251.429H104.762V272.381H167.619V293.333H188.571V272.381H209.524V230.476H272.381V272.381H251.429V251.429H230.476V293.333H251.429V314.286H230.476V356.19H251.429V398.095H230.476V419.048H209.524V398.095H188.571V377.143H209.524V314.286H167.619V335.238H188.571V377.143H167.619V440H188.571V419.048H209.524V440H272.381V419.048H293.333V398.095H335.238V419.048H314.286V440H335.238V419.048H356.19V398.095H440V377.143H419.048V356.19H440V335.238H398.095V377.143H356.19V356.19H335.238V377.143H314.286V356.19H293.333V314.286H272.381V293.333H314.286V335.238H377.143V314.286H398.095V293.333H377.143V272.381H335.238V293.333H314.286V272.381H293.333V209.524H272.381V188.571H335.238V230.476H314.286V251.429H377.143V230.476H398.095V209.524H419.048V230.476H440V167.619H398.095V209.524H377.143V188.571H356.19V167.619H272.381V125.714H251.429V62.8571H272.381V41.9048H251.429V0H209.524V20.9524H188.571V0H167.619V20.9524ZM230.476 31.4286V41.9048H209.524V20.9524H230.476V31.4286ZM251.429 146.667V167.619H272.381V188.571H251.429V209.524H230.476V125.714H251.429V146.667ZM146.667 199.048V209.524H104.762V188.571H146.667V199.048ZM209.524 220V230.476H188.571V272.381H167.619V251.429H104.762V230.476H188.571V209.524H209.524V220ZM62.8571 240.952V251.429H41.9048V230.476H62.8571V240.952ZM272.381 335.238V356.19H293.333V398.095H272.381V356.19H251.429V314.286H272.381V335.238Z" fill="black"/>
<path d="M0 366.667V440H146.667V293.333H0V366.667ZM125.714 366.667V419.048H20.9524V314.286H125.714V366.667Z" fill="black"/>
<path d="M41.9048 73.3334V104.762H73.3334H104.762V73.3334V41.9048H73.3334H41.9048V73.3334Z" fill="black"/>
<path d="M41.9048 366.667V398.095H73.3334H104.762V366.667V335.238H73.3334H41.9048V366.667Z" fill="black"/>
</svg>
