<?xml version="1.0" encoding="utf-8"?>
<!-- Generator: Adobe Illustrator 24.3.0, SVG Export Plug-In . SVG Version: 6.00 Build 0)  -->
<svg version="1.1" id="Layer_1" xmlns="http://www.w3.org/2000/svg" xmlns:xlink="http://www.w3.org/1999/xlink" x="0px" y="0px"
	 viewBox="0 0 139 40" style="enableBackground:new 0 0 139 40;" xml:space="preserve">
<style type="text/css">
	.st0{fill:#FFFFFF;}
	.st1{fill:#5F6368;}
	.st2{fill:#4285F4;}
	.st3{fill:#34A853;}
	.st4{fill:#FBBC04;}
	.st5{fill:#EA4335;}
</style>
<path d="M133.1,0H82.2c-0.2,0-0.4,0-0.6,0c-0.2,0-0.4,0-0.5,0c-0.4,0-0.8,0-1.2,0.1c-0.4,0.1-0.8,0.2-1.1,0.4
	c-0.3,0.2-0.7,0.4-0.9,0.7c-0.3,0.3-0.5,0.6-0.7,1c-0.2,0.4-0.3,0.7-0.4,1.1c-0.1,0.4-0.1,0.8-0.1,1.2c0,0.2,0,0.4,0,0.5
	c0,0.2,0,0.4,0,0.6v28.8c0,0.2,0,0.4,0,0.6c0,0.2,0,0.4,0,0.5c0,0.4,0,0.8,0.1,1.2c0.1,0.4,0.2,0.8,0.4,1.1c0.2,0.4,0.4,0.7,0.7,1
	c0.3,0.3,0.6,0.5,0.9,0.7c0.4,0.2,0.7,0.3,1.1,0.4C80.2,40,80.6,40,81,40c0.2,0,0.4,0,0.5,0c0.2,0,0.4,0,0.6,0h50.9
	c0.2,0,0.4,0,0.6,0c0.2,0,0.4,0,0.5,0c0.4,0,0.8,0,1.2-0.1c0.4-0.1,0.8-0.2,1.1-0.4c0.3-0.2,0.7-0.4,0.9-0.7c0.3-0.3,0.5-0.6,0.7-1
	c0.2-0.4,0.3-0.7,0.4-1.1c0.1-0.4,0.1-0.8,0.1-1.2c0-0.2,0-0.4,0-0.5c0-0.2,0-0.4,0-0.6V5.6c0-0.2,0-0.4,0-0.6c0-0.2,0-0.4,0-0.5
	c0-0.4,0-0.8-0.1-1.2c-0.1-0.4-0.2-0.8-0.4-1.1c-0.2-0.4-0.4-0.7-0.7-1c-0.3-0.3-0.6-0.5-0.9-0.7c-0.4-0.2-0.7-0.3-1.1-0.4
	C135,0,134.6,0,134.2,0c-0.2,0-0.4,0-0.5,0C133.5,0,133.3,0,133.1,0z"/>
<path class="st0" d="M133.1,1.3l0.6,0c0.2,0,0.3,0,0.5,0c0.3,0,0.6,0,1,0.1c0.3,0.1,0.5,0.1,0.7,0.2c0.2,0.1,0.4,0.3,0.6,0.4
	c0.2,0.2,0.3,0.4,0.4,0.6c0.1,0.2,0.2,0.5,0.2,0.7c0.1,0.3,0.1,0.7,0.1,1c0,0.2,0,0.3,0,0.5c0,0.2,0,0.4,0,0.6v28.8
	c0,0.2,0,0.4,0,0.6c0,0.2,0,0.3,0,0.5c0,0.3,0,0.7-0.1,1c0,0.3-0.1,0.5-0.2,0.7c-0.1,0.2-0.3,0.4-0.4,0.6c-0.2,0.2-0.4,0.3-0.6,0.4
	c-0.2,0.1-0.5,0.2-0.7,0.2c-0.3,0.1-0.7,0.1-1,0.1c-0.2,0-0.3,0-0.5,0c-0.2,0-0.4,0-0.6,0H82.2c0,0,0,0,0,0c-0.2,0-0.4,0-0.6,0
	c-0.2,0-0.3,0-0.5,0c-0.3,0-0.6,0-1-0.1c-0.3-0.1-0.5-0.1-0.7-0.2c-0.2-0.1-0.4-0.3-0.6-0.4c-0.2-0.2-0.3-0.4-0.4-0.6
	c-0.1-0.2-0.2-0.5-0.2-0.7c-0.1-0.3-0.1-0.7-0.1-1c0-0.2,0-0.3,0-0.5l0-0.5l0-0.1V5.6l0-0.1l0-0.5c0-0.2,0-0.3,0-0.5
	c0-0.3,0-0.6,0.1-1c0.1-0.3,0.1-0.5,0.2-0.7c0.1-0.2,0.3-0.4,0.4-0.6c0.2-0.2,0.4-0.3,0.6-0.4c0.2-0.1,0.5-0.2,0.7-0.2
	c0.3-0.1,0.7-0.1,1-0.1c0.2,0,0.3,0,0.5,0l0.6,0H133.1z"/>
<path d="M56.4,0H5.6C5.3,0,5.1,0,4.9,0C4.7,0,4.6,0,4.4,0C4,0,3.6,0,3.2,0.1C2.8,0.2,2.5,0.3,2.1,0.5C1.8,0.7,1.4,0.9,1.2,1.2
	c-0.3,0.3-0.5,0.6-0.7,1C0.3,2.5,0.2,2.8,0.1,3.2C0,3.6,0,4,0,4.4C0,4.6,0,4.8,0,5c0,0.2,0,0.4,0,0.6v28.8c0,0.2,0,0.4,0,0.6
	c0,0.2,0,0.4,0,0.5c0,0.4,0,0.8,0.1,1.2c0.1,0.4,0.2,0.8,0.4,1.1c0.2,0.4,0.4,0.7,0.7,1c0.3,0.3,0.6,0.5,0.9,0.7
	c0.4,0.2,0.7,0.3,1.1,0.4C3.6,40,4,40,4.4,40c0.2,0,0.4,0,0.5,0c0.2,0,0.4,0,0.6,0h50.9c0.2,0,0.4,0,0.6,0c0.2,0,0.4,0,0.5,0
	c0.4,0,0.8,0,1.2-0.1c0.4-0.1,0.8-0.2,1.1-0.4c0.3-0.2,0.7-0.4,0.9-0.7c0.3-0.3,0.5-0.6,0.7-1c0.2-0.4,0.3-0.7,0.4-1.1
	C62,36.4,62,36,62,35.6c0-0.2,0-0.4,0-0.5c0-0.2,0-0.4,0-0.6V5.6c0-0.2,0-0.4,0-0.6c0-0.2,0-0.4,0-0.5c0-0.4,0-0.8-0.1-1.2
	c-0.1-0.4-0.2-0.8-0.4-1.1c-0.2-0.4-0.4-0.7-0.7-1c-0.3-0.3-0.6-0.5-0.9-0.7c-0.4-0.2-0.7-0.3-1.1-0.4C58.4,0,58,0,57.6,0
	c-0.2,0-0.4,0-0.5,0C56.9,0,56.7,0,56.4,0z"/>
<path class="st0" d="M56.4,1.3l0.6,0c0.2,0,0.3,0,0.5,0c0.3,0,0.6,0,1,0.1c0.3,0.1,0.5,0.1,0.7,0.2c0.2,0.1,0.4,0.3,0.6,0.4
	c0.2,0.2,0.3,0.4,0.4,0.6c0.1,0.2,0.2,0.5,0.2,0.7c0.1,0.3,0.1,0.7,0.1,1c0,0.2,0,0.3,0,0.5c0,0.2,0,0.4,0,0.6v28.8
	c0,0.2,0,0.4,0,0.6c0,0.2,0,0.3,0,0.5c0,0.3,0,0.7-0.1,1c0,0.3-0.1,0.5-0.2,0.7c-0.1,0.2-0.3,0.4-0.4,0.6c-0.2,0.2-0.4,0.3-0.6,0.4
	c-0.2,0.1-0.5,0.2-0.7,0.2c-0.3,0.1-0.7,0.1-1,0.1c-0.2,0-0.3,0-0.5,0c-0.2,0-0.4,0-0.6,0H5.6c0,0,0,0,0,0c-0.2,0-0.4,0-0.6,0
	c-0.2,0-0.3,0-0.5,0c-0.3,0-0.6,0-1-0.1c-0.3-0.1-0.5-0.1-0.7-0.2c-0.2-0.1-0.4-0.3-0.6-0.4c-0.2-0.2-0.3-0.4-0.4-0.6
	c-0.1-0.2-0.2-0.5-0.2-0.7c-0.1-0.3-0.1-0.7-0.1-1c0-0.2,0-0.3,0-0.5l0-0.5l0-0.1V5.6l0-0.1l0-0.5c0-0.2,0-0.3,0-0.5
	c0-0.3,0-0.6,0.1-1C1.5,3.2,1.5,3,1.7,2.7c0.1-0.2,0.3-0.4,0.4-0.6c0.2-0.2,0.4-0.3,0.6-0.4c0.2-0.1,0.5-0.2,0.7-0.2
	c0.3-0.1,0.7-0.1,1-0.1c0.2,0,0.3,0,0.5,0l0.6,0H56.4z"/>
<path d="M16.9,13.5c0.5-0.7,0.9-1.6,0.8-2.5c-0.8,0-1.7,0.5-2.3,1.2c-0.5,0.6-0.9,1.5-0.8,2.4C15.5,14.6,16.4,14.1,16.9,13.5z"/>
<path d="M17.7,14.7c-1.3-0.1-2.3,0.7-2.9,0.7c-0.6,0-1.5-0.7-2.5-0.7c-1.3,0-2.5,0.8-3.2,1.9c-1.4,2.4-0.4,5.9,1,7.8
	c0.6,1,1.4,2,2.4,2c1,0,1.3-0.6,2.5-0.6c1.2,0,1.5,0.6,2.5,0.6c1.1,0,1.7-1,2.4-1.9c0.7-1.1,1-2.1,1.1-2.2c0,0-2-0.8-2.1-3.1
	c0-2,1.6-2.9,1.7-3C19.6,14.9,18.2,14.8,17.7,14.7z"/>
<path d="M28.7,12.1c2.8,0,4.7,1.9,4.7,4.7c0,2.8-2,4.7-4.7,4.7h-3v4.9h-2.2V12.1H28.7L28.7,12.1z M25.6,19.6h2.5c1.9,0,3-1,3-2.8
	c0-1.8-1.1-2.8-3-2.8h-2.5V19.6z"/>
<path d="M34,23.4c0-1.8,1.4-2.9,3.8-3.1l2.8-0.2v-0.8c0-1.2-0.8-1.9-2.1-1.9c-1.2,0-2,0.6-2.2,1.5h-2c0.1-1.9,1.7-3.3,4.3-3.3
	c2.5,0,4.1,1.3,4.1,3.4v7.2h-2v-1.7h0c-0.6,1.2-1.9,1.9-3.3,1.9C35.4,26.5,34,25.3,34,23.4z M40.7,22.5v-0.8l-2.5,0.2
	c-1.3,0.1-2,0.7-2,1.5c0,0.9,0.7,1.5,1.9,1.5C39.5,24.8,40.7,23.8,40.7,22.5z"/>
<path d="M44.7,30.2v-1.7c0.2,0,0.5,0,0.7,0c1,0,1.5-0.4,1.8-1.5c0,0,0.2-0.6,0.2-0.6l-3.7-10.4H46l2.6,8.5h0l2.6-8.5h2.2l-3.9,11
	c-0.9,2.5-1.9,3.3-4.1,3.3C45.4,30.2,44.9,30.2,44.7,30.2z"/>
<g>
	<path class="st1" d="M106.3,20.9v5.7h-1.8v-14h4.8c1.2,0,2.3,0.4,3.1,1.2c0.8,0.8,1.3,1.8,1.3,3c0,1.1-0.4,2.2-1.3,3
		c-0.8,0.8-1.9,1.2-3.1,1.2L106.3,20.9L106.3,20.9z M106.3,14.3v4.9h3c0.7,0,1.3-0.2,1.8-0.7c0.9-0.9,1-2.4,0-3.4c0,0,0,0,0,0
		c-0.5-0.5-1.1-0.8-1.8-0.7L106.3,14.3L106.3,14.3z"/>
	<path class="st1" d="M117.8,16.7c1.3,0,2.4,0.4,3.2,1.1c0.8,0.7,1.2,1.7,1.2,2.9v5.9h-1.7v-1.3h-0.1c-0.7,1.1-1.7,1.6-3,1.6
		c-1.1,0-1.9-0.3-2.7-0.9c-0.7-0.6-1.1-1.4-1.1-2.3c0-1,0.4-1.8,1.1-2.4c0.8-0.6,1.8-0.9,3-0.9c1.1,0,1.9,0.2,2.6,0.6v-0.4
		c0-0.6-0.3-1.2-0.7-1.6c-0.5-0.4-1.1-0.7-1.7-0.7c-1,0-1.8,0.4-2.4,1.3l-1.6-1C114.8,17.3,116.1,16.7,117.8,16.7z M115.5,23.7
		c0,0.5,0.2,0.9,0.6,1.2c0.4,0.3,0.9,0.5,1.4,0.5c0.8,0,1.5-0.3,2-0.8c0.6-0.6,0.9-1.2,0.9-2c-0.6-0.4-1.3-0.7-2.3-0.7
		c-0.7,0-1.3,0.2-1.8,0.5C115.7,22.7,115.5,23.1,115.5,23.7L115.5,23.7z"/>
	<path class="st1" d="M132,17l-6,13.8h-1.9l2.2-4.8l-4-9h2l2.9,6.9h0L130,17H132z"/>
	<path class="st2" d="M99,19.7c0-0.5,0-1.1-0.1-1.6h-7.6v3.1h4.3c-0.2,1-0.8,1.9-1.6,2.4v2h2.6C98.1,24.2,99,22.1,99,19.7z"/>
	<path class="st3" d="M91.3,27.6c2.2,0,4-0.7,5.3-1.9l-2.6-2c-0.7,0.5-1.7,0.8-2.7,0.8c-2.1,0-3.9-1.4-4.5-3.3h-2.7v2.1
		C85.5,25.8,88.2,27.6,91.3,27.6z"/>
	<path class="st4" d="M86.8,21.1c-0.3-1-0.3-2.1,0-3.1v-2.1h-2.7c-1.1,2.3-1.1,5,0,7.2L86.8,21.1z"/>
	<path class="st5" d="M91.3,14.6c1.1,0,2.3,0.4,3.1,1.2l0,0l2.3-2.3c-1.5-1.4-3.4-2.1-5.4-2.1c-3,0-5.8,1.7-7.2,4.4l2.7,2.1
		C87.4,16.1,89.2,14.6,91.3,14.6z"/>
</g>
</svg>
