<svg width="24" height="25" viewBox="0 0 24 25" fill="none" xmlns="http://www.w3.org/2000/svg">
<path fill-rule="evenodd" clip-rule="evenodd" d="M5.29289 23.2071C5.68342 23.5976 6.31658 23.5976 6.70711 23.2071L12 17.9142L17.2929 23.2071C17.6834 23.5976 18.3166 23.5976 18.7071 23.2071C19.0976 22.8166 19.0976 22.1834 18.7071 21.7929L12.7071 15.7929C12.3166 15.4024 11.6834 15.4024 11.2929 15.7929L5.29289 21.7929C4.90237 22.1834 4.90237 22.8166 5.29289 23.2071Z" fill="#545454"/>
<path fill-rule="evenodd" clip-rule="evenodd" d="M5.29289 16.2071C5.68342 16.5976 6.31658 16.5976 6.70711 16.2071L12 10.9142L17.2929 16.2071C17.6834 16.5976 18.3166 16.5976 18.7071 16.2071C19.0976 15.8166 19.0976 15.1834 18.7071 14.7929L12.7071 8.79289C12.3166 8.40237 11.6834 8.40237 11.2929 8.79289L5.29289 14.7929C4.90237 15.1834 4.90237 15.8166 5.29289 16.2071Z" fill="#A9A9A9"/>
<path fill-rule="evenodd" clip-rule="evenodd" d="M5.29289 9.20711C5.68342 9.59763 6.31658 9.59763 6.70711 9.20711L12 3.91421L17.2929 9.20711C17.6834 9.59763 18.3166 9.59763 18.7071 9.20711C19.0976 8.81658 19.0976 8.18342 18.7071 7.79289L12.7071 1.79289C12.3166 1.40237 11.6834 1.40237 11.2929 1.79289L5.29289 7.79289C4.90237 8.18342 4.90237 8.81658 5.29289 9.20711Z" fill="white"/>
</svg>
