<svg width="24" height="24" viewBox="0 0 24 24" fill="none" xmlns="http://www.w3.org/2000/svg">
<path fill-rule="evenodd" clip-rule="evenodd" d="M18.7071 1.29289C18.3166 0.902369 17.6834 0.902369 17.2929 1.29289L12 6.58579L6.70711 1.29289C6.31658 0.902368 5.68342 0.902368 5.29289 1.29289C4.90237 1.68342 4.90237 2.31658 5.29289 2.70711L11.2929 8.70711C11.6834 9.09763 12.3166 9.09763 12.7071 8.70711L18.7071 2.70711C19.0976 2.31658 19.0976 1.68342 18.7071 1.29289Z" fill="#545454"/>
<path fill-rule="evenodd" clip-rule="evenodd" d="M18.7071 8.29289C18.3166 7.90237 17.6834 7.90237 17.2929 8.29289L12 13.5858L6.70711 8.29289C6.31658 7.90237 5.68342 7.90237 5.29289 8.29289C4.90237 8.68342 4.90237 9.31658 5.29289 9.70711L11.2929 15.7071C11.6834 16.0976 12.3166 16.0976 12.7071 15.7071L18.7071 9.70711C19.0976 9.31658 19.0976 8.68342 18.7071 8.29289Z" fill="#A9A9A9"/>
<path fill-rule="evenodd" clip-rule="evenodd" d="M18.7071 15.2929C18.3166 14.9024 17.6834 14.9024 17.2929 15.2929L12 20.5858L6.70711 15.2929C6.31658 14.9024 5.68342 14.9024 5.29289 15.2929C4.90237 15.6834 4.90237 16.3166 5.29289 16.7071L11.2929 22.7071C11.6834 23.0976 12.3166 23.0976 12.7071 22.7071L18.7071 16.7071C19.0976 16.3166 19.0976 15.6834 18.7071 15.2929Z" fill="white"/>
</svg>
