<svg width="25" height="24" viewBox="0 0 25 24" fill="none" xmlns="http://www.w3.org/2000/svg">
<path d="M20.0191 9.3C20.2899 9.13379 20.5423 8.93937 20.7721 8.72L20.9011 8.59C21.061 8.4254 21.2093 8.24998 21.3451 8.065C21.4824 7.87596 21.6009 7.67401 21.6991 7.462C21.834 7.17282 21.9167 6.86201 21.9431 6.544C22.0261 5.458 21.3831 4.378 19.9481 3.507L14.1691 0L7.4341 6.454L3.0481 10.656L9.13109 14.347C10.1051 14.9435 11.224 15.2617 12.3661 15.267C13.7621 15.267 15.0991 14.774 16.0861 13.827C17.1591 12.799 17.5161 11.469 16.8531 10.362C16.7453 10.183 16.6179 10.0166 16.4731 9.866C16.828 9.94519 17.1905 9.98543 17.5541 9.986H17.5631C18.1568 9.98629 18.7454 9.87644 19.2991 9.662C19.5494 9.56311 19.7904 9.44196 20.0191 9.3ZM14.3871 12.65C13.3051 13.687 11.5641 13.84 10.1471 12.98L5.9401 10.427L9.7171 6.807L13.9971 9.404C15.5391 10.339 15.4541 11.629 14.3881 12.651M14.8881 8.046L10.9301 5.643L14.5381 2.184L18.4231 4.542C19.8761 5.422 20.0651 6.615 19.0141 7.622C18.4693 8.13806 17.7691 8.45938 17.0226 8.53589C16.2761 8.61241 15.5252 8.43981 14.8871 8.045M16.5601 18.687C15.4641 19.737 13.9741 20.317 12.3661 20.317C11.0987 20.3117 9.85697 19.9589 8.7761 19.297L3.0481 15.824V17.206L9.13109 20.897C10.1051 21.4935 11.224 21.8117 12.3661 21.817C13.7621 21.817 15.0991 21.323 16.0861 20.377C16.8071 19.687 17.2061 18.858 17.1881 18.054V17.954C17.003 18.2187 16.7927 18.4649 16.5601 18.689V18.687ZM16.5601 16.503C15.4641 17.553 13.9741 18.131 12.3661 18.131C11.0988 18.1255 9.85728 17.7731 8.7761 17.112L3.0481 13.64V15.022L9.13109 18.714C10.1051 19.3105 11.224 19.6287 12.3661 19.634C13.7621 19.634 15.0991 19.14 16.0861 18.194C16.8071 17.504 17.2061 16.675 17.1881 15.87V15.77C17.003 16.0351 16.7927 16.2815 16.5601 16.506V16.503ZM16.5601 14.318C15.4641 15.369 13.9741 15.948 12.3661 15.948C11.0987 15.9422 9.85718 15.5894 8.7761 14.928L3.0481 11.457V12.839L9.13109 16.531C10.1052 17.1271 11.2241 17.445 12.3661 17.45C13.7621 17.45 15.0991 16.957 16.0861 16.011C16.8071 15.32 17.2061 14.491 17.1881 13.687V13.585C17.0031 13.8504 16.7928 14.0972 16.5601 14.322V14.318ZM21.2481 15.76C20.3339 16.6311 19.1373 17.1449 17.8761 17.208V18.708C18.9604 18.6476 19.9878 18.2031 20.7741 17.454C21.5581 16.704 21.9581 15.88 21.9501 15.066V14.943C21.7446 15.2395 21.5094 15.5143 21.2481 15.763V15.76ZM16.5601 20.868C15.4641 21.919 13.9741 22.498 12.3661 22.498C11.0987 22.4927 9.85697 22.1399 8.7761 21.478L3.0481 18.007V19.389L9.13109 23.08C10.1051 23.6765 11.224 23.9947 12.3661 24C13.7621 24 15.0991 23.507 16.0861 22.561C16.8071 21.87 17.2061 21.041 17.1881 20.237V20.137C17.003 20.4017 16.7927 20.6479 16.5601 20.872V20.868ZM21.3631 9.098C21.3251 9.138 21.2868 9.17667 21.2481 9.214C21.0622 9.39072 20.8629 9.55286 20.6521 9.699C20.4457 9.84595 20.2284 9.97699 20.0021 10.091C19.5386 10.3244 19.0433 10.4885 18.5321 10.578C18.2706 10.6264 18.0059 10.6559 17.7401 10.666C17.7678 10.7565 17.7911 10.8483 17.8101 10.941C17.8566 11.1619 17.8781 11.3873 17.8741 11.613V12.154H17.8771C18.3636 12.1249 18.8427 12.0203 19.2971 11.844C19.8468 11.6296 20.349 11.3092 20.7751 10.901C20.8201 10.858 20.8591 10.814 20.9011 10.771C21.062 10.607 21.2104 10.4312 21.3451 10.245C21.4823 10.0563 21.6009 9.85466 21.6991 9.643C21.8337 9.35276 21.9156 9.04091 21.9411 8.722C21.9461 8.652 21.9531 8.583 21.9521 8.514V8.401C21.9121 8.459 21.8701 8.51667 21.8261 8.574C21.6842 8.7596 21.5295 8.93503 21.3631 9.099V9.098ZM21.3631 13.463C21.3241 13.503 21.2901 13.542 21.2511 13.581C20.3364 14.4513 19.1401 14.965 17.8791 15.029V16.523C18.9633 16.4629 19.9906 16.0187 20.7771 15.27C21.1623 14.9129 21.4753 14.4852 21.6991 14.01C21.8337 13.7198 21.9156 13.4079 21.9411 13.089C21.9478 13.019 21.9511 12.9497 21.9511 12.881V12.758C21.9111 12.818 21.8691 12.878 21.8251 12.938C21.6835 13.1236 21.5292 13.299 21.3631 13.463ZM21.3631 11.279C21.3241 11.318 21.2901 11.358 21.2511 11.396C21.0655 11.5727 20.8666 11.7348 20.6561 11.881C20.449 12.028 20.2311 12.1591 20.0041 12.273C19.3429 12.6082 18.6193 12.8023 17.8791 12.843V14.338C18.9633 14.2779 19.9906 13.8337 20.7771 13.085C20.8221 13.042 20.8611 12.998 20.9041 12.955C21.065 12.791 21.2134 12.6152 21.3481 12.429C21.4843 12.2398 21.6019 12.0379 21.6991 11.826C21.8336 11.5361 21.9155 11.2246 21.9411 10.906C21.9478 10.8353 21.9511 10.766 21.9511 10.698V10.575C21.9118 10.635 21.8694 10.695 21.8241 10.755C21.6829 10.9405 21.5288 11.115 21.3631 11.279Z" fill="black"/>
</svg>
