<svg width="25" height="24" viewBox="0 0 25 24" fill="none" xmlns="http://www.w3.org/2000/svg">
<path d="M9.15116 0H2.45349C1.93539 0 1.43851 0.205813 1.07216 0.572164C0.705813 0.938514 0.5 1.43539 0.5 1.95349V8.65116C0.5 8.9077 0.550528 9.16172 0.6487 9.39873C0.746872 9.63574 0.890765 9.85109 1.07216 10.0325C1.25356 10.2139 1.46891 10.3578 1.70592 10.456C1.94293 10.5541 2.19695 10.6047 2.45349 10.6047H9.15116C9.4077 10.6047 9.66172 10.5541 9.89873 10.456C10.1357 10.3578 10.3511 10.2139 10.5325 10.0325C10.7139 9.85109 10.8578 9.63574 10.956 9.39873C11.0541 9.16172 11.1047 8.9077 11.1047 8.65116V1.95349C11.1047 1.69695 11.0541 1.44293 10.956 1.20592C10.8578 0.968913 10.7139 0.753562 10.5325 0.572164C10.3511 0.390765 10.1357 0.246872 9.89873 0.1487C9.66172 0.0505283 9.4077 0 9.15116 0ZM9.43023 8.65116C9.43023 8.72518 9.40083 8.79616 9.3485 8.8485C9.29616 8.90083 9.22518 8.93023 9.15116 8.93023H2.45349C2.37947 8.93023 2.30849 8.90083 2.25616 8.8485C2.20382 8.79616 2.17442 8.72518 2.17442 8.65116V1.95349C2.17442 1.87947 2.20382 1.80849 2.25616 1.75616C2.30849 1.70382 2.37947 1.67442 2.45349 1.67442H9.15116C9.22518 1.67442 9.29616 1.70382 9.3485 1.75616C9.40083 1.80849 9.43023 1.87947 9.43023 1.95349V8.65116ZM9.15116 13.3953H2.45349C1.93539 13.3953 1.43851 13.6012 1.07216 13.9675C0.705813 14.3339 0.5 14.8307 0.5 15.3488V22.0465C0.5 22.5646 0.705813 23.0615 1.07216 23.4278C1.43851 23.7942 1.93539 24 2.45349 24H9.15116C9.4077 24 9.66172 23.9495 9.89873 23.8513C10.1357 23.7531 10.3511 23.6092 10.5325 23.4278C10.7139 23.2464 10.8578 23.0311 10.956 22.7941C11.0541 22.5571 11.1047 22.303 11.1047 22.0465V15.3488C11.1047 15.0923 11.0541 14.8383 10.956 14.6013C10.8578 14.3643 10.7139 14.1489 10.5325 13.9675C10.3511 13.7861 10.1357 13.6422 9.89873 13.5441C9.66172 13.4459 9.4077 13.3953 9.15116 13.3953ZM9.43023 22.0465C9.43023 22.1205 9.40083 22.1915 9.3485 22.2438C9.29616 22.2962 9.22518 22.3256 9.15116 22.3256H2.45349C2.37947 22.3256 2.30849 22.2962 2.25616 22.2438C2.20382 22.1915 2.17442 22.1205 2.17442 22.0465V15.3488C2.17442 15.2748 2.20382 15.2038 2.25616 15.1515C2.30849 15.0992 2.37947 15.0698 2.45349 15.0698H9.15116C9.22518 15.0698 9.29616 15.0992 9.3485 15.1515C9.40083 15.2038 9.43023 15.2748 9.43023 15.3488V22.0465ZM22.5465 0H15.8488C15.3307 0 14.8339 0.205813 14.4675 0.572164C14.1012 0.938514 13.8953 1.43539 13.8953 1.95349V8.65116C13.8953 8.9077 13.9459 9.16172 14.0441 9.39873C14.1422 9.63574 14.2861 9.85109 14.4675 10.0325C14.6489 10.2139 14.8643 10.3578 15.1013 10.456C15.3383 10.5541 15.5923 10.6047 15.8488 10.6047H22.5465C22.803 10.6047 23.0571 10.5541 23.2941 10.456C23.5311 10.3578 23.7464 10.2139 23.9278 10.0325C24.1092 9.85109 24.2531 9.63574 24.3513 9.39873C24.4495 9.16172 24.5 8.9077 24.5 8.65116V1.95349C24.5 1.43539 24.2942 0.938514 23.9278 0.572164C23.5615 0.205813 23.0646 0 22.5465 0ZM22.8256 8.65116C22.8256 8.72518 22.7962 8.79616 22.7438 8.8485C22.6915 8.90083 22.6205 8.93023 22.5465 8.93023H15.8488C15.7748 8.93023 15.7038 8.90083 15.6515 8.8485C15.5992 8.79616 15.5698 8.72518 15.5698 8.65116V1.95349C15.5698 1.87947 15.5992 1.80849 15.6515 1.75616C15.7038 1.70382 15.7748 1.67442 15.8488 1.67442H22.5465C22.6205 1.67442 22.6915 1.70382 22.7438 1.75616C22.7962 1.80849 22.8256 1.87947 22.8256 1.95349V8.65116ZM13.8953 18.6977V14.2326C13.8953 14.0105 13.9836 13.7976 14.1406 13.6406C14.2976 13.4836 14.5105 13.3953 14.7326 13.3953C14.9546 13.3953 15.1675 13.4836 15.3246 13.6406C15.4816 13.7976 15.5698 14.0105 15.5698 14.2326V18.6977C15.5698 18.9197 15.4816 19.1327 15.3246 19.2897C15.1675 19.4467 14.9546 19.5349 14.7326 19.5349C14.5105 19.5349 14.2976 19.4467 14.1406 19.2897C13.9836 19.1327 13.8953 18.9197 13.8953 18.6977ZM24.5 16.4651C24.5 16.6872 24.4118 16.9001 24.2548 17.0571C24.0978 17.2141 23.8848 17.3023 23.6628 17.3023H20.0349V23.1628C20.0349 23.3848 19.9467 23.5978 19.7897 23.7548C19.6327 23.9118 19.4197 24 19.1977 24H14.7326C14.5105 24 14.2976 23.9118 14.1406 23.7548C13.9836 23.5978 13.8953 23.3848 13.8953 23.1628C13.8953 22.9408 13.9836 22.7278 14.1406 22.5708C14.2976 22.4138 14.5105 22.3256 14.7326 22.3256H18.3605V14.2326C18.3605 14.0105 18.4487 13.7976 18.6057 13.6406C18.7627 13.4836 18.9756 13.3953 19.1977 13.3953C19.4197 13.3953 19.6327 13.4836 19.7897 13.6406C19.9467 13.7976 20.0349 14.0105 20.0349 14.2326V15.6279H23.6628C23.8848 15.6279 24.0978 15.7161 24.2548 15.8731C24.4118 16.0301 24.5 16.2431 24.5 16.4651ZM24.5 20.9302V23.1628C24.5 23.3848 24.4118 23.5978 24.2548 23.7548C24.0978 23.9118 23.8848 24 23.6628 24C23.4408 24 23.2278 23.9118 23.0708 23.7548C22.9138 23.5978 22.8256 23.3848 22.8256 23.1628V20.9302C22.8256 20.7082 22.9138 20.4952 23.0708 20.3382C23.2278 20.1812 23.4408 20.093 23.6628 20.093C23.8848 20.093 24.0978 20.1812 24.2548 20.3382C24.4118 20.4952 24.5 20.7082 24.5 20.9302Z" fill="black"/>
</svg>
