<svg width="17" height="18" viewBox="0 0 17 18" fill="none" xmlns="http://www.w3.org/2000/svg">
<g id="simple-line-icons:plus" clip-path="url(#clip0_657_2810)">
<path id="Vector" d="M8.5 0.5C3.80561 0.5 0 4.30561 0 9C0 13.6947 3.80561 17.5 8.5 17.5C13.1947 17.5 17 13.6947 17 9C17 4.30561 13.1947 0.5 8.5 0.5ZM8.5 16.4542C4.39902 16.4542 1.0625 13.101 1.0625 8.99997C1.0625 4.89898 4.39902 1.56247 8.5 1.56247C12.601 1.56247 15.9375 4.899 15.9375 8.99997C15.9375 13.1009 12.601 16.4542 8.5 16.4542ZM12.2188 8.46875H9.03125V5.28125C9.03125 4.988 8.79325 4.75 8.5 4.75C8.20675 4.75 7.96875 4.988 7.96875 5.28125V8.46875H4.78125C4.488 8.46875 4.25 8.70675 4.25 9C4.25 9.29325 4.488 9.53125 4.78125 9.53125H7.96875V12.7188C7.96875 13.012 8.20675 13.25 8.5 13.25C8.79325 13.25 9.03125 13.012 9.03125 12.7188V9.53125H12.2188C12.512 9.53125 12.75 9.29325 12.75 9C12.75 8.70675 12.512 8.46875 12.2188 8.46875Z" fill="#FFC807"/>
</g>
<defs>
<clipPath id="clip0_657_2810">
<rect width="17" height="17" fill="white" transform="translate(0 0.5)"/>
</clipPath>
</defs>
</svg>
