<svg width="24" height="24" viewBox="0 0 24 24" fill="none" xmlns="http://www.w3.org/2000/svg">
<path d="M6.59895 1.08404C6.72048 1.09228 6.84599 1.10991 6.95696 1.16262C7.12325 1.24158 7.28633 1.39057 7.3431 1.56993L7.34844 1.58788C7.42276 1.82629 7.40588 2.07233 7.40579 2.31909L7.40736 2.99945L11.2387 3.00205L11.2386 2.28391C11.2381 2.05893 11.2016 1.76909 11.2957 1.55877C11.3886 1.35092 11.5523 1.19891 11.7646 1.11942C11.9565 1.04759 12.175 1.07137 12.3575 1.16002C12.5407 1.24904 12.6812 1.40852 12.744 1.60176L12.7506 1.62303C12.8101 1.80143 12.782 2.03806 12.7824 2.2267L12.7875 2.99889L16.6219 2.99985L16.6258 2.229C16.6242 2.09508 16.6087 1.95329 16.6245 1.82028C16.6378 1.70938 16.6562 1.60734 16.7063 1.50642C16.7946 1.32837 16.9509 1.19275 17.1401 1.13171C17.3555 1.06221 17.5936 1.07951 17.7946 1.18354C17.9889 1.28412 18.0958 1.44322 18.1646 1.64647C18.2253 1.82609 18.1943 2.06687 18.1928 2.25672L18.1997 2.99928L19.6308 2.99842C19.9939 2.99778 20.3677 2.96985 20.7254 3.04421C20.9122 3.08305 21.1047 3.17197 21.2626 3.27859C21.6284 3.5256 21.9681 3.9598 22.0508 4.40131C22.1228 4.78611 22.1053 5.17609 22.1061 5.56653L22.1045 7.09131L22.1017 12.1933L22.1021 18.2766L22.1019 19.8276C22.1018 20.2221 22.1391 20.6578 22.0493 21.0433L22.0257 21.1401C21.8594 21.6741 21.5106 22.1109 21.0167 22.3748C20.8625 22.4465 20.7088 22.503 20.5425 22.54C20.3021 22.5934 20.0382 22.5723 19.793 22.5728L18.7986 22.5745L14.848 22.5775L7.22677 22.5766L4.87395 22.5775L4.09405 22.5798C3.94855 22.5801 3.80092 22.5859 3.65581 22.5773C3.34006 22.5587 3.0317 22.4624 2.76659 22.2886C2.32723 22.0006 2.01793 21.5693 1.91722 21.0497C1.85914 20.7501 1.88287 20.4597 1.88664 20.1578L1.88749 19.2723L1.88971 15.3939L1.88844 8.19559L1.88814 5.93319L1.88713 5.22346C1.88661 5.06614 1.88065 4.90621 1.89179 4.74934C1.91648 4.40169 2.0182 4.0768 2.21424 3.78681C2.47752 3.39737 2.92372 3.12411 3.38091 3.0309C3.50591 3.00542 3.63106 3.00889 3.75812 3.00807L4.28401 3.00678L5.82074 3.00624L5.82221 2.18917C5.82184 2.01519 5.80449 1.84385 5.83588 1.67103C5.85141 1.58548 5.88645 1.49914 5.93284 1.42559C6.03043 1.27079 6.20668 1.15194 6.38452 1.11437L6.40435 1.11033L6.59895 1.08404ZM19.2047 8.99413L3.47567 8.99996C3.45085 9.39878 3.46927 9.80799 3.46932 10.2078L3.47028 12.5112L3.47024 18.9858L3.47155 20.2091L3.4697 20.5451C3.46895 20.6165 3.45896 20.6976 3.48245 20.7656L3.48737 20.7808C3.51767 20.8706 3.57683 20.9355 3.66216 20.9759C3.79656 21.0395 4.01724 21.0089 4.16317 21.0084L4.76373 21.0069L15.0719 21.0065L18.3868 21.0063L19.4155 21.0063C19.6736 21.0063 19.9324 21.0105 20.1899 20.9914C20.2751 20.9851 20.3449 20.9514 20.4066 20.8918C20.4439 20.8557 20.4891 20.7951 20.4957 20.7422C20.5101 20.6255 20.4986 20.4953 20.4986 20.3773L20.4985 19.6456L20.5017 17.2077L20.5038 11.5647L20.5056 9.17551C20.5051 9.11338 20.503 9.07039 20.4666 9.01785C20.3758 8.96509 20.174 8.99059 20.0645 8.99064L19.2047 8.99413ZM7.40832 4.57185L7.40624 5.38761C7.40631 5.55203 7.42475 5.74074 7.3851 5.89989C7.34909 6.04419 7.26153 6.185 7.15414 6.2871C7.06625 6.37067 6.95853 6.43353 6.84381 6.47094C6.65558 6.53232 6.44938 6.51608 6.27081 6.43016C6.11408 6.35474 5.96333 6.22009 5.89126 6.05896L5.88343 6.04168C5.77527 5.79744 5.81752 5.48361 5.81938 5.2216L5.81902 4.58132L4.45679 4.57888L4.00386 4.57946C3.90348 4.57963 3.79241 4.56777 3.69732 4.60328L3.68305 4.60836C3.60809 4.6363 3.53504 4.69192 3.50181 4.76621L3.49119 4.79296L3.48495 4.8058C3.44865 4.88521 3.46691 5.02121 3.46721 5.10863L3.4681 5.70894L3.47152 7.15077L18.4542 7.15487L19.7885 7.15452L20.176 7.15447C20.2587 7.15438 20.3441 7.15914 20.4258 7.14578C20.4665 7.11866 20.48 7.09717 20.4922 7.04985C20.5092 6.98366 20.4965 6.88243 20.4965 6.8131L20.4954 6.19825L20.4944 5.36551C20.4944 5.21141 20.5014 5.05299 20.4918 4.8995C20.4881 4.83995 20.4767 4.76692 20.4442 4.71622C20.3943 4.63839 20.3276 4.58828 20.2352 4.57426C20.1554 4.56217 20.0671 4.56805 19.9864 4.56847L19.5553 4.57131L18.2008 4.57299L18.197 5.37505C18.1969 5.54853 18.2145 5.75661 18.1642 5.92381L18.1445 5.98897C18.0894 6.16689 17.9503 6.32366 17.787 6.41071C17.6326 6.49295 17.4655 6.52895 17.2911 6.50509L17.2698 6.50235C17.0809 6.47631 16.8823 6.34039 16.7709 6.18751C16.7035 6.09507 16.6562 5.98529 16.6342 5.87305C16.595 5.67332 16.6189 5.45014 16.6206 5.24656L16.6175 4.57295L12.7988 4.57213L12.7952 5.34711C12.7951 5.53374 12.8141 5.75092 12.7646 5.93143C12.7286 6.06275 12.6507 6.19311 12.5533 6.28864C12.4508 6.38926 12.3373 6.45507 12.1993 6.49274L12.177 6.49923C12.0865 6.52513 11.9867 6.52295 11.8946 6.50713L11.8763 6.50432C11.6817 6.47303 11.4921 6.34581 11.3771 6.18749C11.3074 6.09151 11.261 5.96685 11.2421 5.85053C11.2152 5.68581 11.2304 5.51185 11.2318 5.34559L11.2335 4.57344L7.40832 4.57185Z" fill="black"/>
<path d="M11.9171 10.5373C12.0004 10.5334 12.0762 10.5457 12.1523 10.5812C12.2751 10.6386 12.376 10.7445 12.4187 10.8739L12.576 11.3438L12.6157 11.4595L13.1444 12.9821C13.2173 13.1581 13.3343 13.2885 13.5157 13.3514C13.6668 13.4038 13.8921 13.368 14.0537 13.3651L15.1319 13.3599C15.3564 13.3586 15.5882 13.3449 15.8119 13.3612C15.9079 13.3681 16.0016 13.3838 16.0901 13.4225C16.2037 13.4721 16.2854 13.5705 16.3289 13.6849L16.3363 13.7051L16.3509 13.7417C16.3924 13.8845 16.3606 14.0636 16.2774 14.184C16.1683 14.342 15.9554 14.4585 15.8018 14.5715L14.963 15.1996C14.7848 15.3306 14.5923 15.4519 14.4242 15.5954C14.3631 15.6475 14.3022 15.7007 14.2646 15.7728C14.2083 15.8807 14.1758 16.017 14.2143 16.1369L14.218 16.1481C14.2937 16.456 14.4127 16.755 14.4993 17.0605L14.5373 17.1841L14.6159 17.437L14.6532 17.5588L14.8508 18.1862C14.881 18.3218 14.921 18.4763 14.8658 18.6127L14.8597 18.627C14.8103 18.7462 14.7035 18.8526 14.5853 18.9053C14.5002 18.9432 14.3594 18.9576 14.2705 18.9301C14.0909 18.8745 13.9201 18.7232 13.768 18.6162L12.7188 17.8901C12.5185 17.752 12.3163 17.568 12.0875 17.4841C12.0202 17.4792 11.9428 17.4755 11.8791 17.5012L11.8651 17.5072C11.7848 17.5405 11.7111 17.5964 11.6397 17.6457L11.3192 17.8676L9.95449 18.8183C9.81066 18.9154 9.65942 18.9711 9.48403 18.932C9.35063 18.9023 9.23421 18.8003 9.16256 18.6868C9.09675 18.5825 9.07285 18.4353 9.10067 18.3152C9.14867 18.108 9.22224 17.9055 9.28479 17.7022L9.63101 16.5766L9.74906 16.2031C9.76863 16.1371 9.79444 16.0679 9.79638 15.9985C9.79913 15.9018 9.768 15.7997 9.70889 15.7223C9.59114 15.5682 9.40446 15.4574 9.24919 15.3449L8.19933 14.5828C8.06042 14.4803 7.89734 14.3847 7.77605 14.262C7.71192 14.1971 7.65884 14.1097 7.63495 14.0215C7.59722 13.882 7.6129 13.7361 7.68839 13.6114C7.75062 13.5086 7.87024 13.425 7.98469 13.3935C8.14524 13.3493 8.34832 13.3721 8.51456 13.372L9.8067 13.37L10.2005 13.3688C10.3011 13.3684 10.4091 13.3726 10.5074 13.3476C10.6273 13.3171 10.7185 13.2427 10.7851 13.1406C10.8844 12.9888 10.922 12.7798 10.9762 12.6081L11.3648 11.4355C11.4393 11.2098 11.4899 10.9258 11.6182 10.7247C11.69 10.6121 11.7913 10.5649 11.9171 10.5373Z" fill="black"/>
</svg>
