<svg width="25" height="24" viewBox="0 0 25 24" fill="none" xmlns="http://www.w3.org/2000/svg">
<g id="la:user-friends">
<path id="Vector" d="M7.25 5.25C4.775 5.25 2.75 7.275 2.75 9.75C2.75 11.238 3.48275 12.5625 4.60175 13.383C2.624 14.364 1.25 16.398 1.25 18.75H2.75C2.75 16.257 4.757 14.25 7.25 14.25C9.743 14.25 11.75 16.257 11.75 18.75H13.25C13.25 16.257 15.257 14.25 17.75 14.25C20.243 14.25 22.25 16.257 22.25 18.75H23.75C23.75 16.3973 22.376 14.364 20.3983 13.383C20.9709 12.9657 21.437 12.4193 21.7588 11.788C22.0805 11.1568 22.2488 10.4585 22.25 9.75C22.25 7.275 20.225 5.25 17.75 5.25C15.275 5.25 13.25 7.275 13.25 9.75C13.25 11.238 13.9827 12.5625 15.1017 13.383C14.0059 13.9218 13.0989 14.7796 12.5 15.8438C11.9011 14.7796 10.9941 13.9218 9.89825 13.383C10.4709 12.9657 10.937 12.4193 11.2588 11.788C11.5805 11.1568 11.7488 10.4585 11.75 9.75C11.75 7.275 9.725 5.25 7.25 5.25ZM7.25 6.75C8.91725 6.75 10.25 8.08275 10.25 9.75C10.25 11.4173 8.91725 12.75 7.25 12.75C5.58275 12.75 4.25 11.4173 4.25 9.75C4.25 8.08275 5.58275 6.75 7.25 6.75ZM17.75 6.75C19.4172 6.75 20.75 8.08275 20.75 9.75C20.75 11.4173 19.4172 12.75 17.75 12.75C16.0828 12.75 14.75 11.4173 14.75 9.75C14.75 8.08275 16.0828 6.75 17.75 6.75Z" fill="black"/>
</g>
</svg>
