<svg width="46" height="43" viewBox="0 0 46 43" fill="none" xmlns="http://www.w3.org/2000/svg">
<path d="M0.166656 42.8333L10.5833 13.6667L29.3333 32.4167L0.166656 42.8333ZM7.04166 35.9583L21.7292 30.75L12.25 21.2708L7.04166 35.9583ZM26.3125 23.1458L24.125 20.9583L35.7917 9.29167C36.9028 8.18056 38.2396 7.625 39.8021 7.625C41.3646 7.625 42.7014 8.18056 43.8125 9.29167L45.0625 10.5417L42.875 12.7292L41.625 11.4792C41.1389 10.9931 40.5312 10.75 39.8021 10.75C39.0729 10.75 38.4653 10.9931 37.9792 11.4792L26.3125 23.1458ZM17.9792 14.8125L15.7917 12.625L17.0417 11.375C17.5278 10.8889 17.7708 10.2986 17.7708 9.60417C17.7708 8.90972 17.5278 8.31944 17.0417 7.83333L15.6875 6.47917L17.875 4.29167L19.2292 5.64583C20.3403 6.75694 20.8958 8.07639 20.8958 9.60417C20.8958 11.1319 20.3403 12.4514 19.2292 13.5625L17.9792 14.8125ZM22.1458 18.9792L19.9583 16.7917L27.4583 9.29167C27.9444 8.80556 28.1875 8.19792 28.1875 7.46875C28.1875 6.73958 27.9444 6.13194 27.4583 5.64583L24.125 2.3125L26.3125 0.125L29.6458 3.45833C30.7569 4.56944 31.3125 5.90625 31.3125 7.46875C31.3125 9.03125 30.7569 10.3681 29.6458 11.4792L22.1458 18.9792ZM30.4792 27.3125L28.2917 25.125L31.625 21.7917C32.7361 20.6806 34.0729 20.125 35.6354 20.125C37.1979 20.125 38.5347 20.6806 39.6458 21.7917L42.9792 25.125L40.7917 27.3125L37.4583 23.9792C36.9722 23.4931 36.3646 23.25 35.6354 23.25C34.9062 23.25 34.2986 23.4931 33.8125 23.9792L30.4792 27.3125Z" fill="white"/>
</svg>
