<svg width="196" height="356" viewBox="0 0 196 356" fill="none" xmlns="http://www.w3.org/2000/svg">
<path d="M-100.387 9.31373C-112.143 13.8623 -122.086 19.9271 -132.028 29.8184C-141.97 39.6375 -148.066 49.601 -152.638 61.2251C-157.065 72.4883 -160.041 85.412 -160.911 104.328C-161.782 123.244 -162 129.309 -162 177.538C-162 225.768 -161.782 231.833 -160.911 250.749C-160.041 269.665 -156.993 282.589 -152.638 293.852C-148.066 305.548 -141.97 315.439 -132.028 325.331C-122.086 335.222 -112.143 341.287 -100.387 345.835C-89.0655 350.24 -76.0752 353.2 -57.0614 354.066C-38.0477 354.933 -31.9516 355.149 16.5262 355.149C65.0041 355.149 71.1001 354.933 90.1138 354.066C109.128 353.2 122.118 350.167 133.439 345.835C145.196 341.287 155.138 335.222 165.08 325.331C175.023 315.439 181.119 305.548 185.691 293.852C190.118 282.589 193.093 269.665 193.964 250.749C194.835 231.833 195.052 225.768 195.052 177.538C195.052 129.309 194.835 123.244 193.964 104.328C193.093 85.412 190.045 72.4883 185.691 61.2251C181.119 49.601 175.023 39.6375 165.153 29.8184C155.211 19.9271 145.268 13.8623 133.512 9.31373C122.19 4.90956 109.2 1.94939 90.1864 1.08299C71.1726 0.216598 65.0766 0 16.5988 0C-31.8791 0 -37.9751 0.216598 -56.9889 1.08299C-76.0752 1.87719 -89.0655 4.90956 -100.387 9.31373ZM88.6624 32.9952C106.08 33.7894 115.514 36.6773 121.828 39.1321C130.173 42.3811 136.124 46.2077 142.365 52.4168C148.607 58.626 152.453 64.5463 155.719 72.8493C158.186 79.1306 161.089 88.5165 161.887 105.844C162.758 124.544 162.903 130.176 162.903 177.611C162.903 225.046 162.685 230.677 161.887 249.377C161.089 266.705 158.186 276.091 155.719 282.372C152.453 290.675 148.607 296.595 142.365 302.805C136.124 309.014 130.173 312.84 121.828 316.089C115.514 318.544 106.08 321.432 88.6624 322.226C69.8663 323.093 64.2058 323.237 16.5262 323.237C-31.1533 323.237 -36.8139 323.02 -55.61 322.226C-73.0272 321.432 -82.4615 318.544 -88.7752 316.089C-97.121 312.84 -103.072 309.014 -109.313 302.805C-115.554 296.595 -119.4 290.675 -122.666 282.372C-125.134 276.091 -128.036 266.705 -128.835 249.377C-129.706 230.677 -129.851 225.046 -129.851 177.611C-129.851 130.176 -129.633 124.544 -128.835 105.844C-128.036 88.5165 -125.134 79.1306 -122.666 72.8493C-119.4 64.5463 -115.554 58.626 -109.313 52.4168C-103.072 46.2077 -97.121 42.3811 -88.7752 39.1321C-82.4615 36.6773 -73.0272 33.7894 -55.61 32.9952C-36.8139 32.1288 -31.1533 31.9844 16.5262 31.9844C64.2058 31.9844 69.8663 32.1288 88.6624 32.9952Z" fill="url(#paint0_radial_461_1438)" fill-opacity="0.3"/>
<path d="M-75.1318 177.611C-75.1318 228.006 -34.0562 268.799 16.5262 268.799C67.1086 268.799 108.184 227.934 108.184 177.611C108.184 127.288 67.1812 86.4227 16.5262 86.4227C-34.1288 86.4227 -75.1318 127.215 -75.1318 177.611ZM76.035 177.611C76.035 210.317 49.4012 236.814 16.5262 236.814C-16.3487 236.814 -42.9825 210.317 -42.9825 177.611C-42.9825 144.904 -16.3487 118.407 16.5262 118.407C49.4012 118.407 76.035 144.904 76.035 177.611Z" fill="url(#paint1_radial_461_1438)" fill-opacity="0.3"/>
<path d="M111.885 104.112C123.709 104.112 133.294 94.5758 133.294 82.8128C133.294 71.0497 123.709 61.5139 111.885 61.5139C100.062 61.5139 90.4767 71.0497 90.4767 82.8128C90.4767 94.5758 100.062 104.112 111.885 104.112Z" fill="#654C9F" fill-opacity="0.3"/>
<defs>
<radialGradient id="paint0_radial_461_1438" cx="0" cy="0" r="1" gradientUnits="userSpaceOnUse" gradientTransform="translate(-155.503 322.634) rotate(-2.98473) scale(516.205 436.531)">
<stop stop-color="#FED576"/>
<stop offset="0.2634" stop-color="#F47133"/>
<stop offset="0.6091" stop-color="#BC3081"/>
<stop offset="1" stop-color="#4C63D2"/>
</radialGradient>
<radialGradient id="paint1_radial_461_1438" cx="0" cy="0" r="1" gradientUnits="userSpaceOnUse" gradientTransform="translate(-71.807 252.075) rotate(-2.98473) scale(265.078 224.165)">
<stop stop-color="#FED576"/>
<stop offset="0.2634" stop-color="#F47133"/>
<stop offset="0.6091" stop-color="#BC3081"/>
<stop offset="1" stop-color="#4C63D2"/>
</radialGradient>
</defs>
</svg>
