<svg width="21" height="27" viewBox="0 0 21 27" fill="none" xmlns="http://www.w3.org/2000/svg">
<mask id="path-1-inside-1_531_983" fill="white">
<path fill-rule="evenodd" clip-rule="evenodd" d="M1 1H15.1538V6H16.1538V1V0H15.1538H1H0V1V25.9231V26.9231H1H15.1538H16.1538V25.9231V20H15.1538V25.9231H1V1Z"/>
</mask>
<path fill-rule="evenodd" clip-rule="evenodd" d="M1 1H15.1538V6H16.1538V1V0H15.1538H1H0V1V25.9231V26.9231H1H15.1538H16.1538V25.9231V20H15.1538V25.9231H1V1Z" fill="white"/>
<path d="M15.1538 1H16.1538C16.1538 0.447715 15.7061 0 15.1538 0V1ZM1 1V0C0.447715 0 0 0.447715 0 1H1ZM15.1538 6H14.1538C14.1538 6.55228 14.6016 7 15.1538 7V6ZM16.1538 6V7C16.7061 7 17.1538 6.55228 17.1538 6H16.1538ZM16.1538 0H17.1538C17.1538 -0.552285 16.7061 -1 16.1538 -1V0ZM0 0V-1C-0.552285 -1 -1 -0.552285 -1 0L0 0ZM0 26.9231H-1C-1 27.4754 -0.552285 27.9231 0 27.9231L0 26.9231ZM16.1538 26.9231V27.9231C16.7061 27.9231 17.1538 27.4754 17.1538 26.9231H16.1538ZM16.1538 20H17.1538C17.1538 19.4477 16.7061 19 16.1538 19V20ZM15.1538 20V19C14.6016 19 14.1538 19.4477 14.1538 20H15.1538ZM15.1538 25.9231V26.9231C15.7061 26.9231 16.1538 26.4754 16.1538 25.9231H15.1538ZM1 25.9231H0C0 26.4754 0.447715 26.9231 1 26.9231V25.9231ZM15.1538 0H1V2H15.1538V0ZM16.1538 6V1H14.1538V6H16.1538ZM15.1538 7H16.1538V5H15.1538V7ZM17.1538 6V1H15.1538V6H17.1538ZM17.1538 1V0H15.1538V1H17.1538ZM16.1538 -1H15.1538V1H16.1538V-1ZM15.1538 -1H1V1H15.1538V-1ZM1 -1H0V1H1V-1ZM-1 0V1H1V0H-1ZM-1 1V25.9231H1V1H-1ZM-1 25.9231V26.9231H1V25.9231H-1ZM0 27.9231H1V25.9231H0V27.9231ZM1 27.9231H15.1538V25.9231H1V27.9231ZM15.1538 27.9231H16.1538V25.9231H15.1538V27.9231ZM17.1538 26.9231V25.9231H15.1538V26.9231H17.1538ZM17.1538 25.9231V20H15.1538V25.9231H17.1538ZM16.1538 19H15.1538V21H16.1538V19ZM16.1538 25.9231V20H14.1538V25.9231H16.1538ZM1 26.9231H15.1538V24.9231H1V26.9231ZM0 1V25.9231H2V1H0Z" fill="white" mask="url(#path-1-inside-1_531_983)"/>
<path d="M20.3535 13.4307C20.5488 13.2354 20.5488 12.9189 20.3535 12.7236L17.1716 9.54161C16.9763 9.34635 16.6597 9.34635 16.4645 9.54161C16.2692 9.73688 16.2692 10.0535 16.4645 10.2487L19.2929 13.0771L16.4645 15.9056C16.2692 16.1008 16.2692 16.4174 16.4645 16.6127C16.6597 16.8079 16.9763 16.8079 17.1716 16.6127L20.3535 13.4307ZM8.46153 13.5771L20 13.5771L20 12.5771L8.46153 12.5771L8.46153 13.5771Z" fill="white"/>
</svg>
