<?xml version="1.0" encoding="UTF-8"?><svg id="Ebene_1" xmlns="http://www.w3.org/2000/svg" xmlns:xlink="http://www.w3.org/1999/xlink" viewBox="0 0 21.5 28.92"><defs><style>.cls-1{fill-rule:evenodd;}.cls-1,.cls-2{stroke-width:0px;}.cls-3{mask:url(#mask);}</style><mask id="mask" x="0" y="0" width="18.15" height="28.92" maskUnits="userSpaceOnUse"><g id="path-1-inside-1_531_983"><path class="cls-1" d="M2,2h14.15v5h1V1H1v26.92h16.15v-6.92h-1v5.92H2V2Z"/></g></mask></defs><path class="cls-1" d="M2,2h14.15v5h1V1H1v26.92h16.15v-6.92h-1v5.92H2V2Z"/><g class="cls-3"><path class="cls-2" d="M16.15,2h1c0-.55-.45-1-1-1v1ZM2,2v-1c-.55,0-1,.45-1,1h1ZM16.15,7h-1c0,.55.45,1,1,1v-1ZM17.15,7v1c.55,0,1-.45,1-1h-1ZM17.15,1h1c0-.55-.45-1-1-1v1ZM1,1V0C.45,0,0,.45,0,1h1ZM1,27.92H0c0,.55.45,1,1,1v-1ZM17.15,27.92v1c.55,0,1-.45,1-1h-1ZM17.15,21h1c0-.55-.45-1-1-1v1ZM16.15,21v-1c-.55,0-1,.45-1,1h1ZM16.15,26.92v1c.55,0,1-.45,1-1h-1ZM2,26.92h-1c0,.55.45,1,1,1v-1ZM16.15,1H2v2h14.15V1ZM17.15,7V2h-2v5h2ZM16.15,8h1v-2h-1v2ZM18.15,7V2h-2v5h2ZM18.15,2v-1h-2v1h2ZM17.15,0h-1v2h1V0ZM16.15,0H2v2h14.15V0ZM2,0h-1v2h1V0ZM0,1v1h2v-1H0ZM0,2v24.92h2V2H0ZM0,26.92v1h2v-1H0ZM1,28.92h1v-2h-1v2ZM2,28.92h14.15v-2H2v2ZM16.15,28.92h1v-2h-1v2ZM18.15,27.92v-1h-2v1h2ZM18.15,26.92v-5.92h-2v5.92h2ZM17.15,20h-1v2h1v-2ZM17.15,26.92v-5.92h-2v5.92h2ZM2,27.92h14.15v-2H2v2ZM1,2v24.92h2V2H1Z"/></g><path class="cls-2" d="M21.35,14.43c.2-.2.2-.51,0-.71l-3.18-3.18c-.2-.2-.51-.2-.71,0-.2.2-.2.51,0,.71l2.83,2.83-2.83,2.83c-.2.2-.2.51,0,.71.2.2.51.2.71,0l3.18-3.18ZM9.46,14.58h11.54v-1h-11.54v1Z"/></svg>