<?xml version="1.0" encoding="UTF-8"?><svg id="Ebene_1" xmlns="http://www.w3.org/2000/svg" viewBox="0 0 425.2 179.8"><defs><style>.cls-1{fill:#fff;stroke-width:0px;}</style></defs><path class="cls-1" d="M63.87,80.42l-8.13-.73-15.82.29-6.1,22.79H0L32.66,1.16h38.47l32.37,101.61h-33.82l-5.81-22.36ZM57.63,55.16l-4.21-16.4h-2.47l-4.35,16.4h11.03Z"/><path class="cls-1" d="M133.6,49.79c-23.08,0-21.92-24.24-21.92-24.24.43-5.95,1.74-16.26,15.53-21.34,5.08-1.89,11.9-3.05,21.19-3.05h59.52l-1.45,27.44v8.56c-21.48-7.26-47.18-8.13-54.72-7.69-.87,0-1.74.15-2.47.29-9.87,1.89-8.56,10.74,3.05,10.74h41.81v28.74h-27.29c-20.03,0-21.05,14.66-21.05,33.53h-34.11v-24.39s-1.16-24.24,21.92-24.24v-4.35Z"/><path class="cls-1" d="M291.01,56.32c11.47,0,21.92,10.16,21.92,26.71v19.6h-30.48v-5.23l-.29-2.9v-2.18c0-15.97-6.39-22.21-12.05-24.53h-19.89v34.98h-30.63V28.6l-1.31-24.97-.14-2.47h58.06c33.82,0,36.15,19.89,36.72,28.16v.15s1.6,22.5-21.92,22.5v4.35ZM250.22,29.47v12.48h22.07c12.48,0,13.06-11.9.58-12.48-.87-.15-1.31,0-1.31,0h-21.34Z"/><path class="cls-1" d="M368.29,0h9.73c33.1,0,47.32,27.14,47.18,44.85v14.52c.15,17.71-14.08,44.86-47.18,44.86h-9.73c-35.71,0-48.05-27.15-48.05-44.86,0-7.98-.73-16.98,1.16-24.68,3.92-16.4,17.56-34.69,46.89-34.69ZM372.65,75.77c9-.15,22.07-3.19,22.36-21.34v-4.65c-.29-18.15-13.36-21.19-22.36-21.34-8.13,0-21.92,3.19-22.21,21.34v4.65c.29,18.14,14.08,21.34,22.21,21.34Z"/><path class="cls-1" d="M107.26,160.36l-27.81,19.44-5.46-7.38,19.01-12.91-24.69-23.06,27.38-18.8,5.74,7.24-18.87,12.41,24.69,23.06Z"/><path class="cls-1" d="M182.89,144.61l-30.36,20.01v13.55h-9.22l.07-60.44h2.13l37.39,26.89ZM168.06,144.4l-15.54-11.14v21.21l15.54-10.07Z"/><path class="cls-1" d="M228.3,178.17h-9.36v-59.02h9.36v59.02Z"/><path class="cls-1" d="M301.8,127.94h-14.12v50.23h-9.22v-50.23h-14.12v-8.8h37.46v8.8Z"/><path class="cls-1" d="M347.2,178.17h-9.36v-59.02h9.36v59.02Z"/></svg>