<?xml version="1.0" encoding="utf-8"?>
<!-- Generator: Adobe Illustrator 28.0.0, SVG Export Plug-In . SVG Version: 6.00 Build 0)  -->
<svg version="1.1" id="Ebene_1" xmlns="http://www.w3.org/2000/svg" xmlns:xlink="http://www.w3.org/1999/xlink" x="0px" y="0px"
	 viewBox="0 0 841.89 595.28" style="enable-background:new 0 0 841.89 595.28;" xml:space="preserve">
<style type="text/css">
	.st0{fill:#FFFFFF;}
</style>
<g>
	<g>
		<path class="st0" d="M272.22,288.16l-8.13-0.73l-15.82,0.29l-6.1,22.79h-33.82l32.66-101.61h38.47l32.37,101.61h-33.82
			L272.22,288.16z M265.98,262.9l-4.21-16.4h-2.47l-4.35,16.4H265.98z"/>
		<path class="st0" d="M341.95,257.53c-23.08,0-21.92-24.24-21.92-24.24c0.43-5.95,1.74-16.26,15.53-21.34
			c5.08-1.89,11.9-3.05,21.19-3.05h59.52l-1.45,27.44v8.56c-21.48-7.26-47.18-8.13-54.72-7.69c-0.87,0-1.74,0.15-2.47,0.29
			c-9.87,1.89-8.56,10.74,3.05,10.74h41.81v28.74h-27.29c-20.03,0-21.05,14.66-21.05,33.53h-34.11v-24.39
			c0,0-1.16-24.24,21.92-24.24v-2.18V257.53z"/>
		<path class="st0" d="M499.36,264.06c11.47,0,21.92,10.16,21.92,26.71v19.6H490.8v-5.23l-0.29-2.9c0-0.15,0-1.89,0-2.18
			c0-15.97-6.39-22.21-12.05-24.53h-13.5h-6.39v34.98h-24.53h-6.1v-28.45v-45.73l-1.31-24.97l-0.14-2.47h32.08h25.99
			c33.82,0,36.15,19.89,36.72,28.16c0,0,0,0,0,0.15c0,0,1.6,22.5-21.92,22.5V264.06z M458.57,237.21v12.48h22.07
			c12.48,0,13.06-11.9,0.58-12.48c-0.87-0.15-1.31,0-1.31,0H458.57z"/>
		<path class="st0" d="M576.64,207.74h9.73c33.1,0,47.32,27.14,47.18,44.85v14.52c0.15,17.71-14.08,44.86-47.18,44.86h-9.73
			c-35.71,0-48.05-27.15-48.05-44.86c0-7.98-0.73-16.98,1.16-24.68C533.67,226.03,547.32,207.74,576.64,207.74z M580.99,283.51
			c9-0.15,22.07-3.19,22.36-21.34v-4.65c-0.29-18.15-13.36-21.19-22.36-21.34c-8.13,0-21.92,3.19-22.21,21.34v4.65
			C559.08,280.32,572.87,283.51,580.99,283.51z"/>
	</g>
	<g>
		<path class="st0" d="M315.61,368.1l-27.81,19.44l-5.46-7.38l19.01-12.91l-24.69-23.06l27.38-18.8l5.74,7.24l-18.87,12.41
			L315.61,368.1z"/>
		<path class="st0" d="M391.24,352.35l-30.36,20.01v13.55h-9.22l0.07-60.44h2.13L391.24,352.35z M376.41,352.14L360.87,341v21.21
			L376.41,352.14z"/>
		<path class="st0" d="M436.64,385.9h-9.36v-59.02h9.36V385.9z"/>
		<path class="st0" d="M510.14,335.68h-14.12v50.23h-9.22v-50.23h-14.12v-8.8h37.46V335.68z"/>
		<path class="st0" d="M555.55,385.9h-9.36v-59.02h9.36V385.9z"/>
	</g>
</g>
</svg>
