<svg width="28" height="28" viewBox="0 0 28 28" fill="none" xmlns="http://www.w3.org/2000/svg">
<mask id="mask0_531_1002" style="mask-type:alpha" maskUnits="userSpaceOnUse" x="0" y="0" width="28" height="28">
<rect width="28" height="28" fill="#D9D9D9"/>
</mask>
<g mask="url(#mask0_531_1002)">
<path d="M14 25.6667C11.9389 25.6667 10.2569 25.341 8.95417 24.6896C7.65139 24.0382 7 23.1973 7 22.1667C7 21.4862 7.28194 20.8931 7.84583 20.3875C8.40972 19.882 9.1875 19.4834 10.1792 19.1917L10.85 21.4084C10.5194 21.5056 10.2181 21.6271 9.94583 21.773C9.67361 21.9188 9.48889 22.05 9.39167 22.1667C9.64444 22.4778 10.2278 22.75 11.1417 22.9834C12.0556 23.2167 13.0083 23.3334 14 23.3334C14.9917 23.3334 15.9493 23.2167 16.8729 22.9834C17.7965 22.75 18.3847 22.4778 18.6375 22.1667C18.5403 22.05 18.3556 21.9188 18.0833 21.773C17.8111 21.6271 17.5097 21.5056 17.1792 21.4084L17.85 19.1917C18.8417 19.4834 19.6146 19.882 20.1687 20.3875C20.7229 20.8931 21 21.4862 21 22.1667C21 23.1973 20.3486 24.0382 19.0458 24.6896C17.7431 25.341 16.0611 25.6667 14 25.6667ZM14 17.8792C14.35 17.2375 14.7194 16.6493 15.1083 16.1146C15.4972 15.5799 15.8764 15.0695 16.2458 14.5834C16.9653 13.65 17.5389 12.8091 17.9667 12.0605C18.3944 11.3118 18.6083 10.3834 18.6083 9.27504C18.6083 7.99171 18.1611 6.90282 17.2667 6.00837C16.3722 5.11393 15.2833 4.66671 14 4.66671C12.7167 4.66671 11.6278 5.11393 10.7333 6.00837C9.83889 6.90282 9.39167 7.99171 9.39167 9.27504C9.39167 10.3834 9.60556 11.3118 10.0333 12.0605C10.4611 12.8091 11.0347 13.65 11.7542 14.5834C12.1236 15.0695 12.5028 15.5799 12.8917 16.1146C13.2806 16.6493 13.65 17.2375 14 17.8792ZM14 22.1667C13.7861 22.1667 13.5917 22.1035 13.4167 21.9771C13.2417 21.8507 13.1153 21.6806 13.0375 21.4667C12.5903 20.0862 12.0264 18.9292 11.3458 17.9959C10.6653 17.0625 10.0042 16.1681 9.3625 15.3125C8.74028 14.457 8.20069 13.5723 7.74375 12.6584C7.28681 11.7445 7.05833 10.6167 7.05833 9.27504C7.05833 7.3306 7.72917 5.68754 9.07083 4.34587C10.4125 3.00421 12.0556 2.33337 14 2.33337C15.9444 2.33337 17.5875 3.00421 18.9292 4.34587C20.2708 5.68754 20.9417 7.3306 20.9417 9.27504C20.9417 10.6167 20.7181 11.7445 20.2708 12.6584C19.8236 13.5723 19.2792 14.457 18.6375 15.3125C18.0153 16.1681 17.359 17.0625 16.6687 17.9959C15.9785 18.9292 15.4097 20.0862 14.9625 21.4667C14.8847 21.6806 14.7583 21.8507 14.5833 21.9771C14.4083 22.1035 14.2139 22.1667 14 22.1667ZM14 11.7542C14.6806 11.7542 15.2639 11.5112 15.75 11.025C16.2361 10.5389 16.4792 9.9556 16.4792 9.27504C16.4792 8.59449 16.2361 8.01115 15.75 7.52504C15.2639 7.03893 14.6806 6.79587 14 6.79587C13.3194 6.79587 12.7361 7.03893 12.25 7.52504C11.7639 8.01115 11.5208 8.59449 11.5208 9.27504C11.5208 9.9556 11.7639 10.5389 12.25 11.025C12.7361 11.5112 13.3194 11.7542 14 11.7542Z" fill="black"/>
</g>
</svg>
