<svg width="26" height="25" viewBox="0 0 26 25" fill="none" xmlns="http://www.w3.org/2000/svg">
<path d="M0.802363 9V2.52H1.65286L4.00186 7.3935L6.33736 2.52H7.19686V8.9955H6.30586V4.563L4.21336 9H3.78586L1.68886 4.563V9H0.802363ZM8.45764 9V2.52H12.5976V3.4065H9.39814V5.2245H12.0576V6.111H9.39814V8.1135H12.5976V9H8.45764ZM13.6783 9V2.52H14.6323L17.8228 7.335V2.52H18.7768V9H17.8228L14.6323 4.1805V9H13.6783ZM22.6158 9.135C22.1088 9.135 21.6603 9.0315 21.2703 8.8245C20.8833 8.6145 20.5803 8.322 20.3613 7.947C20.1423 7.569 20.0328 7.125 20.0328 6.615V2.5245L20.9868 2.52V6.5655C20.9868 6.8415 21.0333 7.0845 21.1263 7.2945C21.2193 7.5045 21.3438 7.68 21.4998 7.821C21.6558 7.962 21.8298 8.0685 22.0218 8.1405C22.2168 8.2125 22.4148 8.2485 22.6158 8.2485C22.8198 8.2485 23.0178 8.2125 23.2098 8.1405C23.4048 8.0655 23.5803 7.9575 23.7363 7.8165C23.8923 7.6755 24.0153 7.5 24.1053 7.29C24.1983 7.08 24.2448 6.8385 24.2448 6.5655V2.52H25.1988V6.615C25.1988 7.122 25.0893 7.5645 24.8703 7.9425C24.6513 8.3205 24.3468 8.6145 23.9568 8.8245C23.5698 9.0315 23.1228 9.135 22.6158 9.135Z" fill="white"/>
<line x1="1" y1="12.5" x2="25" y2="12.5" stroke="white"/>
<line x1="1" y1="18.5" x2="25" y2="18.5" stroke="white"/>
<line x1="1" y1="24.5" x2="25" y2="24.5" stroke="white"/>
</svg>
