<?xml version="1.0" encoding="UTF-8"?><svg id="Ebene_1" xmlns="http://www.w3.org/2000/svg" viewBox="0 0 24.4 22.48"><defs><style>.cls-1{stroke:#fff;}.cls-1,.cls-2{fill:#1d1d1b;}.cls-2{stroke-width:0px;}</style></defs><path class="cls-2" d="M0,6.48V0h.85l2.35,4.87L5.53,0h.86v6.48h-.89V2.04l-2.09,4.44h-.43L.89,2.04v4.44h-.89ZM7.66,6.48V0h4.14v.89h-3.2v1.82h2.66v.89h-2.66v2h3.2v.89h-4.14ZM12.88,6.48V0h.95l3.19,4.82V0h.95v6.48h-.95l-3.19-4.82v4.82h-.95ZM21.81,6.62c-.51,0-.96-.1-1.35-.31-.39-.21-.69-.5-.91-.88-.22-.38-.33-.82-.33-1.33V0h.95s0,4.04,0,4.04c0,.28.05.52.14.73.09.21.22.39.37.53.16.14.33.25.52.32.2.07.39.11.59.11s.4-.04.59-.11c.19-.07.37-.18.53-.32.16-.14.28-.32.37-.53.09-.21.14-.45.14-.72V0h.95v4.09c0,.51-.11.95-.33,1.33s-.52.67-.91.88c-.39.21-.83.31-1.34.31Z"/><line class="cls-1" x1=".2" y1="9.98" x2="24.2" y2="9.98"/><line class="cls-1" x1=".2" y1="15.98" x2="24.2" y2="15.98"/><line class="cls-1" x1=".2" y1="21.98" x2="24.2" y2="21.98"/></svg>