<svg width="25" height="24" viewBox="0 0 25 24" fill="none" xmlns="http://www.w3.org/2000/svg">
<g id="ph:arrow-fat-up-bold">
<path id="Vector" d="M10.9542 2.2052L1.95418 11.2052C1.8493 11.3097 1.76608 11.4339 1.7093 11.5707C1.65252 11.7074 1.62329 11.854 1.62329 12.0021C1.62329 12.1501 1.65252 12.2968 1.7093 12.4335C1.76608 12.5702 1.8493 12.6944 1.95418 12.799L10.9542 21.799C11.1117 21.9566 11.3125 22.064 11.5311 22.1074C11.7497 22.1508 11.9763 22.1283 12.1821 22.0427C12.3878 21.9571 12.5636 21.8123 12.687 21.6267C12.8104 21.4411 12.8758 21.2231 12.8751 21.0002L12.8751 17.6252L20.0001 17.6252C20.4974 17.6252 20.9743 17.4277 21.3259 17.076C21.6776 16.7244 21.8751 16.2475 21.8751 15.7502L21.8751 8.2502C21.8751 7.75292 21.6776 7.27601 21.3259 6.92438C20.9743 6.57275 20.4974 6.3752 20.0001 6.3752L12.8751 6.3752L12.8751 3.0002C12.8751 2.77765 12.8091 2.5601 12.6854 2.37508C12.5617 2.19005 12.386 2.04587 12.1803 1.96076C11.9747 1.87566 11.7484 1.85345 11.5302 1.89697C11.3119 1.94048 11.1115 2.04775 10.9542 2.2052ZM10.6251 7.5002C10.6251 7.79857 10.7436 8.08472 10.9546 8.2957C11.1656 8.50668 11.4517 8.6252 11.7501 8.6252L19.6251 8.6252L19.6251 15.3752L11.7501 15.3752C11.4517 15.3752 11.1656 15.4937 10.9546 15.7047C10.7436 15.9157 10.6251 16.2018 10.6251 16.5002L10.6251 18.2815L4.34387 12.0002L10.6251 5.71895L10.6251 7.5002Z" fill="black"/>
</g>
</svg>
