<svg width="42" height="42" viewBox="0 0 42 42" fill="none" xmlns="http://www.w3.org/2000/svg">
<path d="M0.166656 10.5834V0.166748H10.5833V4.33342H4.33332V10.5834H0.166656ZM0.166656 41.8334V31.4167H4.33332V37.6667H10.5833V41.8334H0.166656ZM31.4167 41.8334V37.6667H37.6667V31.4167H41.8333V41.8334H31.4167ZM37.6667 10.5834V4.33342H31.4167V0.166748H41.8333V10.5834H37.6667ZM32.4583 32.4584H35.5833V35.5834H32.4583V32.4584ZM32.4583 26.2084H35.5833V29.3334H32.4583V26.2084ZM29.3333 29.3334H32.4583V32.4584H29.3333V29.3334ZM26.2083 32.4584H29.3333V35.5834H26.2083V32.4584ZM23.0833 29.3334H26.2083V32.4584H23.0833V29.3334ZM29.3333 23.0834H32.4583V26.2084H29.3333V23.0834ZM26.2083 26.2084H29.3333V29.3334H26.2083V26.2084ZM23.0833 23.0834H26.2083V26.2084H23.0833V23.0834ZM35.5833 6.41675V18.9167H23.0833V6.41675H35.5833ZM18.9167 23.0834V35.5834H6.41666V23.0834H18.9167ZM18.9167 6.41675V18.9167H6.41666V6.41675H18.9167ZM15.7917 32.4584V26.2084H9.54166V32.4584H15.7917ZM15.7917 15.7917V9.54175H9.54166V15.7917H15.7917ZM32.4583 15.7917V9.54175H26.2083V15.7917H32.4583Z" fill="white"/>
</svg>
