<svg width="36" height="56" viewBox="0 0 36 56" fill="none" xmlns="http://www.w3.org/2000/svg">
<path d="M5.5 55.5C4.125 55.5 2.94792 55.0104 1.96875 54.0312C0.989583 53.0521 0.5 51.875 0.5 50.5V5.5C0.5 4.125 0.989583 2.94792 1.96875 1.96875C2.94792 0.989583 4.125 0.5 5.5 0.5H30.5C31.875 0.5 33.0521 0.989583 34.0312 1.96875C35.0104 2.94792 35.5 4.125 35.5 5.5V50.5C35.5 51.875 35.0104 53.0521 34.0312 54.0312C33.0521 55.0104 31.875 55.5 30.5 55.5H5.5ZM5.5 48V50.5H30.5V48H5.5ZM5.5 43H30.5V13H5.5V43ZM5.5 8H30.5V5.5H5.5V8Z" fill="white"/>
</svg>
