<svg width="25" height="25" viewBox="0 0 25 25" fill="none" xmlns="http://www.w3.org/2000/svg">
<path fill-rule="evenodd" clip-rule="evenodd" d="M3.75 0H8.125V1.25V2.5H3.75C3.05964 2.5 2.5 3.05964 2.5 3.75V8.125H1.25H0V3.75C0 1.67893 1.67893 0 3.75 0ZM0 21.25V16.875H1.25H2.5V21.25C2.5 21.9404 3.05964 22.5 3.75 22.5H8.125V23.75V25H3.75C1.67893 25 0 23.3211 0 21.25ZM16.875 1.25V0H21.25C23.3211 0 25 1.67893 25 3.75V8.125H23.75H22.5V3.75C22.5 3.05964 21.9404 2.5 21.25 2.5H16.875V1.25ZM23.75 16.875H25V21.25C25 23.3211 23.3211 25 21.25 25H16.875V23.75V22.5H21.25C21.9404 22.5 22.5 21.9404 22.5 21.25V16.875H23.75ZM1.25 11.75C0.559644 11.75 0 12.3096 0 13C0 13.6904 0.559644 14.25 1.25 14.25H23.75C24.4404 14.25 25 13.6904 25 13C25 12.3096 24.4404 11.75 23.75 11.75H1.25Z" fill="black"/>
</svg>
