<svg width="60" height="60" viewBox="0 0 60 60" fill="none" xmlns="http://www.w3.org/2000/svg">
<path d="M17.5 57.5C16.125 57.5 14.9479 57.0104 13.9688 56.0312C12.9896 55.0521 12.5 53.875 12.5 52.5V7.5C12.5 6.125 12.9896 4.94792 13.9688 3.96875C14.9479 2.98958 16.125 2.5 17.5 2.5H42.5C43.875 2.5 45.0521 2.98958 46.0312 3.96875C47.0104 4.94792 47.5 6.125 47.5 7.5V52.5C47.5 53.875 47.0104 55.0521 46.0312 56.0312C45.0521 57.0104 43.875 57.5 42.5 57.5H17.5ZM17.5 50V52.5H42.5V50H17.5ZM17.5 45H42.5V15H17.5V45ZM17.5 10H42.5V7.5H17.5V10Z" fill="white"/>
<path d="M31 39V37H33V39H31ZM29 37V32H31V37H29ZM37 34V30H39V34H37ZM35 30V28H37V30H35ZM23 32V30H25V32H23ZM21 30V28H23V30H21ZM30 23V21H32V23H30ZM22.5 25.5H25.5V22.5H22.5V25.5ZM21 27V21H27V27H21ZM22.5 37.5H25.5V34.5H22.5V37.5ZM21 39V33H27V39H21ZM34.5 25.5H37.5V22.5H34.5V25.5ZM33 27V21H39V27H33ZM35 39V36H33V34H37V37H39V39H35ZM31 32V30H35V32H31ZM27 32V30H25V28H31V30H29V32H27ZM28 27V23H30V25H32V27H28ZM23.25 24.75V23.25H24.75V24.75H23.25ZM23.25 36.75V35.25H24.75V36.75H23.25ZM35.25 24.75V23.25H36.75V24.75H35.25Z" fill="white"/>
</svg>
