<svg width="24" height="24" viewBox="0 0 24 24" fill="none" xmlns="http://www.w3.org/2000/svg">
<path d="M5.5 9.74983V20.2498C5.5 20.3878 5.612 20.4998 5.75 20.4998H18.25C18.3163 20.4998 18.3799 20.4735 18.4268 20.4266C18.4737 20.3797 18.5 20.3161 18.5 20.2498V9.74983C18.5 9.68352 18.4737 9.61994 18.4268 9.57305C18.3799 9.52617 18.3163 9.49983 18.25 9.49983H15.75C15.5511 9.49983 15.3603 9.42081 15.2197 9.28016C15.079 9.13951 15 8.94874 15 8.74983C15 8.55092 15.079 8.36015 15.2197 8.2195C15.3603 8.07885 15.5511 7.99983 15.75 7.99983H18.25C19.216 7.99983 20 8.78383 20 9.74983V20.2498C20 20.714 19.8156 21.1591 19.4874 21.4873C19.1592 21.8155 18.7141 21.9998 18.25 21.9998H5.75C5.28587 21.9998 4.84075 21.8155 4.51256 21.4873C4.18437 21.1591 4 20.714 4 20.2498V9.74983C4 8.78383 4.784 7.99983 5.75 7.99983H8.25C8.44891 7.99983 8.63968 8.07885 8.78033 8.2195C8.92098 8.36015 9 8.55092 9 8.74983C9 8.94874 8.92098 9.13951 8.78033 9.28016C8.63968 9.42081 8.44891 9.49983 8.25 9.49983H5.75C5.6837 9.49983 5.62011 9.52617 5.57322 9.57305C5.52634 9.61994 5.5 9.68352 5.5 9.74983ZM12.53 1.21983L15.78 4.46983C15.8787 4.5615 15.9509 4.6781 15.9889 4.80735C16.0269 4.9366 16.0294 5.07371 15.996 5.20423C15.9626 5.33476 15.8947 5.45386 15.7993 5.549C15.7039 5.64414 15.5846 5.71179 15.454 5.74483C15.3236 5.77814 15.1867 5.77575 15.0575 5.73792C14.9284 5.7001 14.8118 5.62822 14.72 5.52983L12.75 3.55983V14.2498C12.75 14.4487 12.671 14.6395 12.5303 14.7802C12.3897 14.9208 12.1989 14.9998 12 14.9998C11.8011 14.9998 11.6103 14.9208 11.4697 14.7802C11.329 14.6395 11.25 14.4487 11.25 14.2498V3.55983L9.28 5.52983C9.13785 5.66247 8.94975 5.73473 8.75536 5.73137C8.56097 5.72802 8.37548 5.6493 8.238 5.51183C8.10053 5.37435 8.02181 5.18886 8.01846 4.99447C8.0151 4.80007 8.08736 4.61197 8.22 4.46983L11.47 1.21983C11.6106 1.07938 11.8012 1.00049 12 1.00049C12.1988 1.00049 12.3894 1.07938 12.53 1.21983Z" fill="white" fill-opacity="0.4"/>
</svg>
