<svg width="255" height="363" viewBox="0 0 255 363" fill="none" xmlns="http://www.w3.org/2000/svg">
<path d="M182 0C81.3312 0 0 81.3177 0 181.5C0 281.892 81.5417 363 182 363C282.669 363 364 281.682 364 181.5C364 81.3177 282.458 0 182 0ZM265.492 261.95C262.234 267.372 255.272 268.887 249.835 265.637C206.997 239.614 153.29 233.761 89.7886 248.071C83.7029 249.375 77.6173 245.689 76.3092 239.62C75.0011 233.551 78.6979 227.482 84.7836 226.177C154.148 210.353 213.719 217.068 261.562 246.347C262.851 247.112 263.975 248.124 264.87 249.325C265.765 250.525 266.413 251.891 266.777 253.342C267.14 254.793 267.213 256.302 266.989 257.781C266.766 259.26 266.252 260.681 265.475 261.961L265.492 261.95ZM287.674 212.508C283.545 219.229 274.843 221.186 268.109 217.273C219.185 187.348 144.599 178.675 86.7628 196.02C79.1529 198.187 71.3269 194.069 69.1486 186.695C66.976 179.106 71.1051 171.302 78.715 169.13C144.815 149.182 227.011 158.722 283.329 193.201C289.852 197.103 291.803 205.776 287.679 212.502L287.674 212.508ZM289.63 160.894C230.918 126.199 134.157 122.949 78.0553 139.863C69.1373 142.682 59.5709 137.481 56.7442 128.587C53.9175 119.694 59.1329 110.153 68.0509 107.335C132.416 87.8233 239.398 91.7199 306.812 131.622C314.86 136.386 317.465 146.799 312.682 154.82C308.331 163.061 297.678 165.664 289.63 160.888V160.894Z" fill="#1ED760" fill-opacity="0.3"/>
</svg>
