<svg width="22" height="22" viewBox="0 0 22 22" fill="none" xmlns="http://www.w3.org/2000/svg">
<g clip-path="url(#clip0_506_975)">
<path d="M11 0.5C5.19219 0.5 0.5 5.20433 0.5 11C0.5 16.8078 5.20433 21.5 11 21.5C16.8078 21.5 21.5 16.7957 21.5 11C21.5 5.20433 16.7957 0.5 11 0.5ZM15.8169 15.6541C15.6289 15.9678 15.2272 16.0554 14.9135 15.8674C12.4421 14.362 9.34363 14.0233 5.68011 14.8512C5.32902 14.9267 4.97792 14.7134 4.90245 14.3623C4.82698 14.0112 5.04027 13.6601 5.39136 13.5846C9.39317 12.6692 12.83 13.0577 15.5901 14.7515C15.6645 14.7957 15.7293 14.8543 15.781 14.9238C15.8326 14.9932 15.87 15.0722 15.891 15.1561C15.9119 15.2401 15.9161 15.3274 15.9032 15.413C15.8903 15.4985 15.8607 15.5807 15.8159 15.6548L15.8169 15.6541ZM17.0966 12.7939C16.8583 13.1827 16.3563 13.2959 15.9678 13.0695C13.1453 11.3383 8.84225 10.8366 5.50555 11.84C5.06652 11.9653 4.61502 11.7271 4.48934 11.3006C4.364 10.8615 4.60222 10.41 5.04125 10.2844C8.85472 9.13034 13.5968 9.68225 16.8459 11.6769C17.2222 11.9027 17.3348 12.4044 17.0969 12.7935L17.0966 12.7939ZM17.2094 9.80792C13.8222 7.80078 8.23981 7.61277 5.00319 8.59123C4.48869 8.75431 3.93678 8.45342 3.7737 7.93892C3.61063 7.42442 3.91152 6.87252 4.42602 6.70944C8.13941 5.58069 14.3114 5.80611 18.2007 8.11447C18.665 8.39009 18.8153 8.99253 18.5393 9.4565C18.2883 9.93327 17.6737 10.0839 17.2094 9.80759V9.80792Z" fill="black"/>
</g>
<defs>
<clipPath id="clip0_506_975">
<rect width="21" height="21" fill="white" transform="translate(0.5 0.5)"/>
</clipPath>
</defs>
</svg>
