<svg width="16" height="15" viewBox="0 0 16 15" fill="none" xmlns="http://www.w3.org/2000/svg">
<path d="M15.0686 5.16916L13.6895 3.78997C13.5783 3.6802 13.4299 3.6161 13.2737 3.61032C13.1175 3.60453 12.9648 3.65748 12.8457 3.75872C12.6619 3.91521 12.426 3.99693 12.1847 3.98767C11.9435 3.9784 11.7145 3.87884 11.5432 3.70872C11.3732 3.53741 11.2737 3.3085 11.2644 3.06731C11.2551 2.82612 11.3368 2.59025 11.4932 2.40641C11.5944 2.28732 11.6474 2.13462 11.6416 1.97842C11.6358 1.82222 11.5717 1.67385 11.4619 1.56258L10.0816 0.18183C9.96492 0.0653941 9.80684 0 9.64203 0C9.47721 0 9.31913 0.0653941 9.20248 0.18183L7.00395 2.38016C6.86822 2.51639 6.76585 2.68219 6.70488 2.86458C6.69301 2.89964 6.67321 2.9315 6.64704 2.95768C6.62086 2.98386 6.589 3.00365 6.55394 3.01553C6.37148 3.0765 6.20567 3.17899 6.06954 3.31493L0.43182 8.95295C0.315391 9.0696 0.25 9.22769 0.25 9.39252C0.25 9.55734 0.315391 9.71543 0.43182 9.83209L1.8125 11.2113C1.92377 11.3211 2.07212 11.3852 2.22832 11.3909C2.38451 11.3967 2.5372 11.3438 2.65628 11.2425C2.83969 11.0848 3.07594 11.0022 3.31769 11.0112C3.55944 11.0203 3.78882 11.1204 3.95989 11.2915C4.13095 11.4626 4.23105 11.692 4.24013 11.9337C4.2492 12.1755 4.16659 12.4117 4.00884 12.5952C3.9076 12.7142 3.85465 12.8669 3.86044 13.0231C3.86622 13.1793 3.93032 13.3277 4.04009 13.439L5.4192 14.8182C5.53586 14.9346 5.69394 15 5.85875 15C6.02357 15 6.18165 14.9346 6.2983 14.8182L11.936 9.18015C12.0719 9.04408 12.1744 8.87838 12.2354 8.69605C12.2472 8.66087 12.267 8.6289 12.2933 8.60266C12.3195 8.57641 12.3515 8.55661 12.3867 8.54478C12.5689 8.48379 12.7346 8.38142 12.8707 8.24569L15.069 6.04705C15.185 5.93041 15.2501 5.77256 15.25 5.60804C15.2499 5.44353 15.1847 5.28573 15.0686 5.16916ZM7.9318 4.24251C7.88537 4.28896 7.83024 4.3258 7.76957 4.35094C7.7089 4.37608 7.64387 4.38901 7.5782 4.38901C7.51252 4.38901 7.44749 4.37608 7.38682 4.35094C7.32615 4.3258 7.27102 4.28896 7.22459 4.24251L6.86489 3.88279C6.7734 3.78854 6.72266 3.66208 6.72365 3.53073C6.72464 3.39938 6.77727 3.27369 6.87017 3.18083C6.96307 3.08797 7.08877 3.03539 7.22012 3.03446C7.35146 3.03353 7.4779 3.08432 7.5721 3.17585L7.9318 3.53526C7.97825 3.5817 8.01509 3.63683 8.04022 3.6975C8.06536 3.75818 8.0783 3.82321 8.0783 3.88889C8.0783 3.95456 8.06536 4.0196 8.04022 4.08027C8.01509 4.14095 7.97825 4.19608 7.9318 4.24251ZM9.30686 5.61764C9.21309 5.71135 9.08596 5.76398 8.95341 5.76398C8.82085 5.76398 8.69372 5.71135 8.59995 5.61764L8.25619 5.27386C8.16241 5.18007 8.10972 5.05287 8.10972 4.92023C8.10972 4.7876 8.16241 4.66039 8.25619 4.56661C8.34997 4.47282 8.47717 4.42013 8.6098 4.42013C8.74243 4.42013 8.86962 4.47282 8.96341 4.56661L9.30717 4.91039C9.35377 4.95682 9.39076 5.01199 9.416 5.07274C9.44125 5.13349 9.45426 5.19863 9.45429 5.26442C9.45432 5.33021 9.44137 5.39535 9.41617 5.45613C9.39098 5.5169 9.35404 5.57211 9.30748 5.61858L9.30686 5.61764ZM10.6819 6.99277C10.6355 7.03921 10.5804 7.07606 10.5197 7.10119C10.459 7.12633 10.394 7.13927 10.3283 7.13927C10.2626 7.13927 10.1976 7.12633 10.1369 7.10119C10.0763 7.07606 10.0211 7.03921 9.9747 6.99277L9.63093 6.64898C9.53944 6.55474 9.48871 6.42827 9.4897 6.29692C9.49069 6.16557 9.54332 6.03988 9.63622 5.94702C9.72911 5.85416 9.85482 5.80158 9.98616 5.80065C10.1175 5.79972 10.2439 5.85051 10.3381 5.94205L10.6819 6.28583C10.7286 6.33218 10.7658 6.38731 10.7911 6.44804C10.8165 6.50878 10.8297 6.57393 10.8298 6.63975C10.83 6.70558 10.8171 6.77079 10.792 6.83163C10.7669 6.89248 10.73 6.94777 10.6835 6.99433L10.6819 6.99277ZM12.0704 8.38477C12.024 8.43122 11.9688 8.46806 11.9082 8.49319C11.8475 8.51833 11.7825 8.53127 11.7168 8.53127C11.6511 8.53127 11.5861 8.51833 11.5254 8.49319C11.4647 8.46806 11.4096 8.43122 11.3632 8.38477L11.0057 8.02536C10.9583 7.97906 10.9205 7.9238 10.8946 7.86279C10.8688 7.80177 10.8553 7.73623 10.855 7.66995C10.8546 7.60368 10.8675 7.538 10.8928 7.47675C10.9181 7.41549 10.9553 7.35987 11.0023 7.31312C11.0492 7.26637 11.105 7.22943 11.1664 7.20444C11.2278 7.17944 11.2935 7.1669 11.3598 7.16754C11.4261 7.16818 11.4915 7.18199 11.5524 7.20816C11.6133 7.23433 11.6684 7.27234 11.7145 7.31998L12.0723 7.67908C12.1187 7.72553 12.1555 7.78068 12.1806 7.84137C12.2057 7.90205 12.2186 7.96709 12.2186 8.03277C12.2186 8.09845 12.2056 8.16347 12.1805 8.22414C12.1553 8.2848 12.1184 8.33992 12.072 8.38633L12.0704 8.38477Z" fill="#7F8489"/>
</svg>
