<?xml version="1.0" encoding="UTF-8"?><svg id="Ebene_1" xmlns="http://www.w3.org/2000/svg" xmlns:xlink="http://www.w3.org/1999/xlink" viewBox="0 0 491.68 150.39"><defs><style>.cls-1{fill:#b5211a;}.cls-1,.cls-2{stroke-width:0px;}.cls-2{fill:none;}.cls-3{clip-path:url(#clippath-1);}.cls-4{clip-path:url(#clippath);}</style><clipPath id="clippath"><rect class="cls-2" width="491.68" height="150.39"/></clipPath><clipPath id="clippath-1"><rect class="cls-2" width="491.68" height="150.39"/></clipPath></defs><g class="cls-4"><g class="cls-3"><path class="cls-1" d="M44.95,61.67l-10.17-6.79c-4.53-3.02-5.73-9.71-5.73-14.43v-2.36c0-4.81,1.54-7.17,5.55-7.17,4.36,0,5.3,2.36,5.3,7.17v13.39h27.6v-13.39C67.5,11.42,56.99,1.23,34.95,1.23S1.37,10.85,1.37,38.1v3.11c0,18.76,1.28,27.34,20.85,42.43l12.05,9.33c5.73,4.24,5.98,8.58,5.98,14.9v4.34c0,4.24-1.28,7.17-6.49,7.17-4.53,0-6.15-2.92-6.15-7.73v-12.82H0v12.82C0,137.19,9.83,149.16,34.09,149.16s33.92-12.45,33.92-36.58v-6.69c-.43-18.76-4.27-31.58-23.07-44.22"/><polygon class="cls-1" points="71.49 33.29 90.88 33.29 90.88 146.99 118.74 146.99 118.74 33.29 138.14 33.29 138.14 3.5 71.49 3.5 71.49 33.29"/><path class="cls-1" d="M183.77,112.67c0,3.3-.85,6.79-5.98,6.79s-5.98-3.49-5.98-6.79V3.5h-27.6v109.18c0,22.82,8.37,36.49,33.58,36.49s33.58-13.67,33.58-36.49V3.5h-27.6v109.18Z"/><path class="cls-1" d="M251.19,3.5h-33.75v143.5h33.41c25.21,0,33.58-15.56,33.58-38.47V41.96c0-22.72-8.29-38.18-33.24-38.47M256.83,108.53c0,3.3-.85,8.77-5.98,8.77h-5.72V33.29h5.72c5.13,0,5.98,5.37,5.98,8.67v66.56Z"/><rect class="cls-1" x="290.5" y="3.5" width="27.69" height="143.5"/><path class="cls-1" d="M391.6,110.79V39.7c0-22.91-8.46-38.47-33.67-38.47s-33.67,15.65-33.67,38.37v71.09c0,22.91,8.46,38.47,33.67,38.47s33.67-15.65,33.67-38.37M375.04,67.73c-.41.12-.92-.01-1.32-.17.2.8.11,1.78-.14,2.56.73-.2,1.54-.06,2.19.36.2.13.38.29.6.35.28.09.58.02.87.08.56.12.96.69,1.1,1.3.14.61.06,1.25-.02,1.87-.05.42-.11.86-.36,1.18-.44.58-1.24.55-1.92.46.13.53-.26,1.14-.76,1.17-.21.01-.46-.05-.61.1-.13.13-.13.34-.17.53-.15.69-.98,1.09-1.53.72-.19-.12-.36-.31-.58-.29-.08,0-.53.05-1.21.25-.08.11-.16.22-.23.33-.31.52-.65,1.12-1.2,1.25-.3.07-.62,0-.89.13-.46.24-.51.93-.82,1.37-.42.59-1.2.63-1.82.95,0,0-.02,0-.02.01-1.42,2.24-1.71,5.93-.88,8.26,2,5.66,8.26,8.46,10.12,14.18-3.09-.24-6.23.36-9.06,1.75-2.31,1.13-4.4,2.75-6.7,3.9-3.44,1.72-8.81,3.14-12.74,2.12.93-3.83,4.28-7.51,4.85-8.97.57-1.46.87-3.14.39-4.64-.32-1.03-2.67-6.43-3.38-8.19-.24-.6-.54-1.2-1.02-1.6-.16-.14-.35-.24-.55-.31-1.57.84-3.21,1.63-4.77.94-1.38-.61-2.17-2.25-2.47-3.86-.05-.24-.09-.51-.25-.68-.18-.2-.46-.23-.69-.33-.49-.22-.81-.82-.75-1.39.06-.58.49-1.08,1.01-1.17.07-.01.2-.2.14-.24-.37-.27-.74-.56-.99-.96-.25-.4-.35-.95-.13-1.38.18-.36.54-.57.86-.79.32-.23.63-.55.63-.97-.47-.21-.87-.61-1.23-1.01-.36-.4-.57-1.01-.38-1.53.16-.43.54-.7.88-.96.79-.59,1.54-1.26,2.21-2,.29-.32.57-.65.73-1.06.17-.43.19-.91.18-1.38-.06-1.88-.68-3.72-.54-5.59.09-1.16.48-2.27,1.04-3.26.35-1.24.77-2.61,1.16-2.89-.79-.56-1.18-1.72-.92-2.71.05-.18.11-.36.1-.55-.03-.5-.55-.76-.78-1.19-.39-.72.12-1.61.61-2.26.35-.47.7-.93,1.05-1.4.32-.42.67-.86,1.14-1,.41-.12.84.01,1.23.17.69.27,1.4.7,1.66,1.46.08.22.11.46.26.63.16.2.42.24.64.35.57.28.88,1.07.69,1.72.96-.6,1.92-1,3.02-1.09-.76-.82-.8-2.33-.09-3.2.14-.17.31-.34.34-.56.02-.18-.05-.35-.09-.52-.23-.85.24-1.85,1-2.14.12-.05.25-.08.34-.18.09-.11.11-.26.15-.4.17-.64.77-1.08,1.37-1.15.61-.07,1.21.19,1.71.57.66.51,1.17,1.24,1.44,2.07.17.53.33,1.07.9,1.61.82.77-.08,1.78.12,2.29.54.22,1.13-.02,1.71.03.54.04,1.04.32,1.52.6.27.15.64.29.91.44.16-.56.59-1.02,1.11-1.17.11-.03.23-.05.33-.12.2-.15.23-.45.28-.72.11-.64.42-1.25.9-1.63.48-.37,1.15-.48,1.68-.2.25-.43.75-.64,1.21-.59.46.05.89.31,1.23.65,1,.97,1.43,2.52,1.34,3.98-.05.8-.29,1.67-.93,2.06.28.4.22,1-.03,1.43-.25.43-.68.89-1.06,1.18.77.71,1.19,1.56,1.47,2.62.5-.38,1.01-.77,1.59-.93.59-.16,1.28-.04,1.67.47.55-.32,1.15-.64,1.76-.55.57.08,1.05.51,1.46.96.28.31.55.65.67,1.06.13.41.08.91-.2,1.22.56,1.05.56,2.43-.01,3.48-.57,1.04-1.67,1.7-2.78,1.64.19.42-.15.94-.56,1.05"/><path class="cls-1" d="M364.6,76.14c0,2.39-1.31,4.34-2.93,4.34s-2.93-1.94-2.93-4.34c0-.99.23-1.9.61-2.63-.73.86-1.19,2.11-1.19,3.51,0,2.59,1.57,4.68,3.51,4.68s3.51-2.1,3.51-4.68c0-1.4-.46-2.65-1.19-3.51.38.73.61,1.64.61,2.63"/><path class="cls-1" d="M491.56,83.67c-.6-3.37-3.28-5.81-6.39-5.81-.42,0-.85.05-1.26.14-.2.04-5.95,1.29-14.2,3.07,3.29-19.3,3.57-28.77,3.58-29.18.1-3.96-2.73-7.27-6.31-7.39-.07,0-.14,0-.21,0-3.54,0-6.4,3.06-6.51,6.97,0,.07-.24,7.22-2.49,21.57-.54,3.47-1.18,7.18-1.88,11.02-9.96,2.15-20.89,4.51-29.79,6.43,21.73-26.64,40.52-53.6,37.67-73.51C462.27,6.66,454.48,0,443.89,0c-7.02,0-13.87,3.09-18.77,8.48-4.3,4.72-6.36,10.25-7.04,12.41l-.03.08c-1.2,3.71.57,7.83,3.93,9.16.71.28,1.45.43,2.2.43,2.73,0,5.19-1.9,6.13-4.73.01-.04,1.45-4.23,4.44-7.68,2.58-2.96,5.41-4.4,8.65-4.4.14,0,.28,0,.42,0,2.1.08,4,.91,5.35,2.35,1.23,1.32,1.6,2.64,1.79,3.64.66,3.57.01,12.29-11.66,30.53-8.16,12.75-18.88,25.72-25.97,34.31-2.73,3.3-5.08,6.15-6.72,8.29-2.26,2.95-5.34,6.98-2.9,11.82,1.2,2.38,3.42,3.8,5.93,3.8.45,0,.91-.05,1.36-.14,3.63-.75,24.17-5.18,41.83-8.99-2.79,13.07-6.22,27.1-10.22,41.76-1.04,3.8.92,7.82,4.36,8.96.61.2,1.25.31,1.88.31,2.85,0,5.42-2.11,6.24-5.12,4.77-17.47,8.72-33.92,11.76-48.93,10.56-2.28,18.63-4.03,19.57-4.23,1.71-.37,3.18-1.45,4.16-3.04.97-1.59,1.32-3.51.99-5.4"/></g></g></svg>