<svg width="25" height="24" viewBox="0 0 25 24" fill="none" xmlns="http://www.w3.org/2000/svg">
<g id="material-symbols:table-bar-outline">
<path id="Vector" d="M6.5 20L8 16.25C8.15 15.8667 8.39167 15.5623 8.725 15.337C9.05833 15.1117 9.43333 14.9993 9.85 15H11.5V10.975C8.95 10.8917 6.81233 10.5167 5.087 9.85C3.36167 9.18333 2.49933 8.4 2.5 7.5C2.5 6.53333 3.475 5.70833 5.425 5.025C7.375 4.34167 9.73333 4 12.5 4C15.2833 4 17.646 4.34167 19.588 5.025C21.53 5.70833 22.5007 6.53333 22.5 7.5C22.5 8.4 21.6373 9.18333 19.912 9.85C18.1867 10.5167 16.0493 10.8917 13.5 10.975V15H15.15C15.55 15 15.921 15.1127 16.263 15.338C16.605 15.5633 16.8507 15.8673 17 16.25L18.5 20H16.5L15.3 17H9.7L8.5 20H6.5ZM12.5 9C14.1167 9 15.6417 8.85833 17.075 8.575C18.5083 8.29167 19.5583 7.93333 20.225 7.5C19.5583 7.06667 18.5083 6.70833 17.075 6.425C15.6417 6.14167 14.1167 6 12.5 6C10.8833 6 9.35833 6.14167 7.925 6.425C6.49167 6.70833 5.44167 7.06667 4.775 7.5C5.44167 7.93333 6.49167 8.29167 7.925 8.575C9.35833 8.85833 10.8833 9 12.5 9Z" fill="black"/>
</g>
</svg>
