<svg width="20" height="23" viewBox="0 0 20 23" fill="none" xmlns="http://www.w3.org/2000/svg">
<g clip-path="url(#clip0_461_1459)">
<path d="M10.842 -4.16106e-05C10.4191 -4.16106e-05 10.073 0.344155 10.073 0.76484C10.073 0.76484 10.0654 4.49746 10.0577 8.23009C10.0577 10.0964 10.05 11.9704 10.0423 13.3777C10.0423 14.7851 10.0423 15.68 10.0423 15.7489C10.0423 17.141 8.77355 18.273 7.32795 18.273C5.88235 18.273 4.75202 17.1333 4.75202 15.7106C4.75202 14.288 5.89773 13.1483 7.32795 13.1483C7.37409 13.1483 7.47405 13.1636 7.64321 13.1865C8.06613 13.2401 8.4506 12.9341 8.49673 12.5211C8.49673 12.4905 8.49673 12.4599 8.49673 12.4293V9.21679C8.49673 8.8114 8.18147 8.4825 7.77393 8.4519C7.6509 8.4519 7.50481 8.42896 7.32026 8.42896C3.29104 8.42131 0 11.695 0 15.7106C0 19.7263 3.29104 23 7.32795 23C11.3649 23 14.6559 19.7263 14.6559 15.7106V8.78845C15.7709 9.67571 17.1703 10.2417 18.7082 10.2417C18.9158 10.2417 19.1157 10.2264 19.308 10.2111C19.7001 10.1729 20.0077 9.84399 20.0077 9.44625V5.87425C20.0077 5.47651 19.7001 5.13997 19.2926 5.10937C16.8781 4.93345 14.9481 3.05949 14.6943 0.680703C14.6559 0.290614 14.3253 -0.00769043 13.9331 -0.00769043H10.842V-4.16106e-05ZM11.6109 1.52972H13.3641C13.9254 4.05383 15.9016 5.97369 18.4698 6.46321V8.65842C16.8243 8.57428 15.3787 7.75586 14.5329 6.47086C14.3022 6.11901 13.8255 6.01958 13.4717 6.24904C13.2564 6.39437 13.1257 6.63148 13.1257 6.89154V15.7183C13.1257 18.9078 10.5421 21.4778 7.33564 21.4778C4.12918 21.4778 1.54556 18.9078 1.54556 15.7183C1.54556 12.5287 3.94464 10.2264 6.96655 10.0352V11.7027C4.88274 11.8939 3.21415 13.5996 3.21415 15.7259C3.21415 17.9747 5.06728 19.818 7.32795 19.818C9.58862 19.818 11.5802 18.0512 11.5802 15.7642C11.5802 15.8024 11.5802 14.8004 11.5802 13.393C11.5802 11.9857 11.5879 10.1117 11.5955 8.24539C11.5955 4.88755 11.6109 2.19517 11.6109 1.54502V1.52972Z" fill="white"/>
</g>
<defs>
<clipPath id="clip0_461_1459">
<rect width="20" height="23" fill="white"/>
</clipPath>
</defs>
</svg>
