<svg width="20" height="23" viewBox="0 0 20 23" fill="none" xmlns="http://www.w3.org/2000/svg">
<g id="icons8-tick-tack2 1" clip-path="url(#clip0_654_1725)">
<path id="Vector" d="M10.842 -0.000163681C10.4191 -0.000163681 10.073 0.344033 10.073 0.764718C10.073 0.764718 10.0654 4.49734 10.0577 8.22997C10.0577 10.0963 10.05 11.9702 10.0423 13.3776C10.0423 14.785 10.0423 15.6799 10.0423 15.7488C10.0423 17.1408 8.77355 18.2729 7.32795 18.2729C5.88235 18.2729 4.75202 17.1332 4.75202 15.7105C4.75202 14.2878 5.89773 13.1482 7.32795 13.1482C7.37409 13.1482 7.47405 13.1635 7.64321 13.1864C8.06613 13.2399 8.4506 12.934 8.49673 12.521C8.49673 12.4904 8.49673 12.4598 8.49673 12.4292V9.21666C8.49673 8.81128 8.18147 8.48238 7.77393 8.45178C7.6509 8.45178 7.50481 8.42884 7.32026 8.42884C3.29104 8.42119 0 11.6949 0 15.7105C0 19.7261 3.29104 22.9998 7.32795 22.9998C11.3649 22.9998 14.6559 19.7261 14.6559 15.7105V8.78833C15.7709 9.67559 17.1703 10.2416 18.7082 10.2416C18.9158 10.2416 19.1157 10.2263 19.308 10.211C19.7001 10.1728 20.0077 9.84387 20.0077 9.44613V5.87413C20.0077 5.47639 19.7001 5.13984 19.2926 5.10925C16.8781 4.93332 14.9481 3.05936 14.6943 0.680581C14.6559 0.290491 14.3253 -0.0078125 13.9331 -0.0078125H10.842V-0.000163681ZM11.6109 1.5296H13.3641C13.9254 4.05371 15.9016 5.97356 18.4698 6.46309V8.6583C16.8243 8.57416 15.3787 7.75574 14.5329 6.47074C14.3022 6.11889 13.8255 6.01946 13.4717 6.24892C13.2564 6.39425 13.1257 6.63136 13.1257 6.89142V15.7182C13.1257 18.9077 10.5421 21.4777 7.33564 21.4777C4.12918 21.4777 1.54556 18.9077 1.54556 15.7182C1.54556 12.5286 3.94464 10.2263 6.96655 10.0351V11.7025C4.88274 11.8938 3.21415 13.5994 3.21415 15.7258C3.21415 17.9746 5.06728 19.8179 7.32795 19.8179C9.58862 19.8179 11.5802 18.0511 11.5802 15.7641C11.5802 15.8023 11.5802 14.8003 11.5802 13.3929C11.5802 11.9855 11.5879 10.1116 11.5955 8.24526C11.5955 4.88743 11.6109 2.19505 11.6109 1.5449V1.5296Z" fill="black"/>
</g>
<defs>
<clipPath id="clip0_654_1725">
<rect width="20" height="23" fill="white"/>
</clipPath>
</defs>
</svg>
