<svg xmlns="http://www.w3.org/2000/svg" viewBox="0 0 180 180" width="180" height="180">
  <defs>
    <style>
      .main-color { fill: #ffc807; }
      .bg-color { fill: #000000; }
      .qr-element { fill: #ffc807; }
    </style>
  </defs>
  
  <!-- Background -->
  <rect class="bg-color" width="180" height="180" rx="45" ry="45"/>
  
  <!-- Stylized G with QR code elements -->
  <path class="main-color" d="M54,45c-9,0-18,3.6-23.4,9c-5.4,5.4-9,14.4-9,23.4v27c0,9,3.6,18,9,23.4c5.4,5.4,14.4,9,23.4,9h18c12.6,0,23.4-5.4,28.8-14.4v-27H72v18h18c-3.6,3.6-9,5.4-18,5.4h-9c-5.4,0-10.8-1.8-14.4-5.4c-3.6-3.6-5.4-9-5.4-14.4v-18c0-5.4,1.8-10.8,5.4-14.4c3.6-3.6,9-5.4,14.4-5.4h9c9,0,14.4,3.6,18,9h18c-3.6-9-14.4-16.2-27-16.2H54z"/>
  
  <!-- QR Code Elements -->
  <rect class="qr-element" x="117" y="45" width="18" height="18" rx="2" ry="2"/>
  <rect class="qr-element" x="117" y="117" width="18" height="18" rx="2" ry="2"/>
  <rect class="qr-element" x="45" y="117" width="18" height="18" rx="2" ry="2"/>
  <rect class="qr-element" x="81" y="81" width="18" height="18" rx="2" ry="2"/>
  <rect class="qr-element" x="135" y="81" width="9" height="9" rx="1" ry="1"/>
  <rect class="qr-element" x="81" y="135" width="9" height="9" rx="1" ry="1"/>
  <rect class="qr-element" x="135" y="135" width="9" height="9" rx="1" ry="1"/>
</svg> 