<?xml version="1.0" encoding="UTF-8"?>
<svg xmlns="http://www.w3.org/2000/svg" viewBox="0 0 100 100">
  <defs>
    <style>
      .main-color {
        fill: #ffc807;
      }
      .bg-color {
        fill: #000000;
      }
      .qr-element {
        fill: #ffc807;
      }
    </style>
  </defs>
  
  <!-- Background -->
  <rect class="bg-color" width="100" height="100" rx="10" ry="10"/>
  
  <!-- Stylized G with QR code elements -->
  <path class="main-color" d="M30,25c-5,0-10,2-13,5c-3,3-5,8-5,13v15c0,5,2,10,5,13c3,3,8,5,13,5h10c7,0,13-3,16-8v-15H40v10h10c-2,2-5,3-10,3h-5c-3,0-6-1-8-3c-2-2-3-5-3-8v-10c0-3,1-6,3-8c2-2,5-3,8-3h5c5,0,8,2,10,5h10c-2-5-8-9-15-9H30z"/>
  
  <!-- QR Code Elements -->
  <rect class="qr-element" x="65" y="25" width="10" height="10"/>
  <rect class="qr-element" x="65" y="65" width="10" height="10"/>
  <rect class="qr-element" x="25" y="65" width="10" height="10"/>
  <rect class="qr-element" x="45" y="45" width="10" height="10"/>
  <rect class="qr-element" x="75" y="45" width="5" height="5"/>
  <rect class="qr-element" x="45" y="75" width="5" height="5"/>
  <rect class="qr-element" x="75" y="75" width="5" height="5"/>
</svg> 