<svg xmlns="http://www.w3.org/2000/svg" viewBox="0 0 512 512" width="512" height="512">
  <defs>
    <style>
      .main-color { fill: #ffc807; }
      .bg-color { fill: #000000; }
      .qr-element { fill: #ffc807; }
    </style>
  </defs>
  
  <!-- Background -->
  <rect class="bg-color" width="512" height="512" rx="64" ry="64"/>
  
  <!-- Stylized G with QR code elements -->
  <path class="main-color" d="M153.6,128c-25.6,0-51.2,10.24-66.56,25.6c-15.36,15.36-25.6,40.96-25.6,66.56v76.8c0,25.6,10.24,51.2,25.6,66.56c15.36,15.36,40.96,25.6,66.56,25.6h51.2c35.84,0,66.56-15.36,81.92-40.96v-76.8H204.8v51.2h51.2c-10.24,10.24-25.6,15.36-51.2,15.36h-25.6c-15.36,0-30.72-5.12-40.96-15.36c-10.24-10.24-15.36-25.6-15.36-40.96v-51.2c0-15.36,5.12-30.72,15.36-40.96c10.24-10.24,25.6-15.36,40.96-15.36h25.6c25.6,0,40.96,10.24,51.2,25.6h51.2c-10.24-25.6-40.96-46.08-76.8-46.08H153.6z"/>
  
  <!-- QR Code Elements -->
  <rect class="qr-element" x="332.8" y="128" width="51.2" height="51.2" rx="6" ry="6"/>
  <rect class="qr-element" x="332.8" y="332.8" width="51.2" height="51.2" rx="6" ry="6"/>
  <rect class="qr-element" x="128" y="332.8" width="51.2" height="51.2" rx="6" ry="6"/>
  <rect class="qr-element" x="230.4" y="230.4" width="51.2" height="51.2" rx="6" ry="6"/>
  <rect class="qr-element" x="384" y="230.4" width="25.6" height="25.6" rx="3" ry="3"/>
  <rect class="qr-element" x="230.4" y="384" width="25.6" height="25.6" rx="3" ry="3"/>
  <rect class="qr-element" x="384" y="384" width="25.6" height="25.6" rx="3" ry="3"/>
  
  <!-- Title -->
  <text x="256" y="460" font-family="Arial, sans-serif" font-size="24" font-weight="bold" fill="#ffc807" text-anchor="middle">GUEST CODE</text>
</svg> 