<svg width="70" height="70" viewBox="0 0 70 70" fill="none" xmlns="http://www.w3.org/2000/svg">
<path d="M30.3615 5L31.9433 5.02637L33.0096 9.66338L34.357 5.06444L35.5844 5.08495L36.7824 9.71611L37.9952 5.11717L39.5799 5.14354L37.6554 11.7109L35.9388 11.6846L34.9253 7.77401L33.7887 11.6494L32.0751 11.6201L30.3615 5Z" fill="white"/>
<path d="M52.0819 10.3957L48.7777 16.1077L47.4742 15.352L48.7836 13.0847L46.9821 12.0595L45.6698 14.3268L44.3633 13.5739L47.6675 7.86188L48.974 8.61763L47.7086 10.8029L49.5042 11.8427L50.7667 9.65751L52.0819 10.3957Z" fill="white"/>
<path d="M59.0595 17.3146L53.8571 21.3716L52.9285 20.1824L58.1309 16.1253L59.0595 17.3146Z" fill="white"/>
<path d="M62.97 29.1517L62.472 27.5318L57.5538 29.0492L57.1086 27.608L62.0415 26.0906L61.5435 24.4678L62.9202 24.0402L64.3644 28.727L62.97 29.1517Z" fill="white"/>
<path d="M59.4344 40.2595L57.9903 40.0984L58.4443 35.9769L65 36.6975L64.5548 40.7663L63.1106 40.6081L63.4036 38.0333L62.3168 37.9132L62.059 40.2566L60.6354 40.1013L60.8932 37.7579L59.7215 37.629L59.4344 40.2595Z" fill="white"/>
<path d="M59.3143 46.7507C59.7068 46.9789 60.0487 47.2846 60.3193 47.6492C60.5898 48.0138 60.7833 48.4296 60.888 48.8714C60.9927 49.3131 61.0064 49.7716 60.9282 50.2188C60.85 50.666 60.6816 51.0926 60.4333 51.4727C60.1442 51.9548 59.7363 52.3547 59.2486 52.6342C58.7609 52.9137 58.2096 53.0635 57.6475 53.0691L57.6885 51.5664C57.9928 51.5658 58.2913 51.484 58.5534 51.3295C58.8155 51.175 59.0316 50.9535 59.1795 50.6876C59.7918 49.6917 59.5223 48.6372 58.5205 48.022C57.5187 47.4069 56.4553 47.6324 55.8402 48.6284C55.6686 48.8796 55.5678 49.1723 55.5482 49.4758C55.5286 49.7793 55.591 50.0826 55.7289 50.3537L54.4048 51.0655C54.1545 50.5583 54.0398 49.9948 54.0722 49.4301C54.1045 48.8654 54.2827 48.3187 54.5894 47.8433C54.8201 47.4529 55.1277 47.1134 55.4935 46.8454C55.8594 46.5774 56.2758 46.3866 56.7177 46.2844C57.1595 46.1822 57.6175 46.1709 58.0638 46.251C58.5102 46.3312 58.9356 46.5012 59.3143 46.7507Z" fill="white"/>
<path d="M48.5288 62.3051L45.0518 56.7014L46.3318 55.9076L47.7145 58.1309L49.472 57.0383L48.0894 54.812L49.3695 54.0153L52.8524 59.619L51.5723 60.4157L50.2395 58.2715L48.4819 59.3641L49.8177 61.5113L48.5288 62.3051Z" fill="white"/>
<path d="M40.2038 61.8745C40.2541 62.551 40.1026 63.2272 39.7686 63.8176C39.4345 64.4081 38.9329 64.8862 38.3272 65.1916C37.7214 65.4969 37.0388 65.6158 36.3654 65.5332C35.6921 65.4507 35.0584 65.1703 34.5444 64.7276C34.0305 64.2848 33.6593 63.6997 33.4779 63.046C33.2964 62.3923 33.3129 61.6996 33.5252 61.0553C33.7374 60.411 34.1359 59.8441 34.6704 59.4263C35.2048 59.0084 35.8511 58.7585 36.5276 58.7079C36.9777 58.6704 37.4308 58.7229 37.8604 58.8624C38.29 59.0019 38.6875 59.2255 39.0297 59.5203C39.372 59.8151 39.652 60.1751 39.8536 60.5793C40.0552 60.9835 40.1742 61.4238 40.2038 61.8745ZM34.8667 62.2729C34.9026 62.6501 35.0492 63.0083 35.2881 63.3024C35.527 63.5965 35.8475 63.8134 36.2094 63.9258C36.5712 64.0383 36.9582 64.0413 37.3218 63.9344C37.6853 63.8275 38.0091 63.6155 38.2525 63.325C38.4958 63.0346 38.6479 62.6787 38.6896 62.3021C38.7312 61.9255 38.6606 61.5449 38.4866 61.2083C38.3126 60.8717 38.043 60.5941 37.7116 60.4103C37.3802 60.2266 37.0019 60.1449 36.6242 60.1755C36.368 60.1893 36.1173 60.2556 35.8878 60.3703C35.6582 60.485 35.4547 60.6457 35.2899 60.8424C35.125 61.0391 35.0024 61.2676 34.9296 61.5137C34.8568 61.7597 34.8354 62.0182 34.8667 62.2729Z" fill="white"/>
<path d="M26.7176 61.1715C26.5455 61.5919 26.2897 61.9729 25.9656 62.2912C25.6415 62.6096 25.2559 62.8585 24.8325 63.023C24.409 63.1874 23.9565 63.2639 23.5025 63.2478C23.0485 63.2316 22.6025 63.1232 22.1918 62.929C21.6736 62.7095 21.2202 62.3608 20.8751 61.9162C20.53 61.4715 20.3046 60.9459 20.2205 60.3893L21.7173 60.2253C21.7618 60.5233 21.8844 60.8041 22.0728 61.0393C22.2611 61.2744 22.5084 61.4555 22.7894 61.564C23.8586 62.0385 24.8633 61.6255 25.3408 60.5475C25.8183 59.4696 25.4433 58.4502 24.3741 57.9786C24.1021 57.8421 23.7982 57.7815 23.4946 57.8031C23.191 57.8248 22.8988 57.9279 22.6488 58.1016L21.77 56.886C22.2372 56.5715 22.7778 56.383 23.3392 56.3389C23.9007 56.2948 24.464 56.3964 24.9746 56.634C25.3953 56.8074 25.7762 57.0647 26.094 57.3902C26.4118 57.7158 26.6599 58.1028 26.823 58.5275C26.9862 58.9522 27.061 59.4057 27.0428 59.8603C27.0247 60.315 26.914 60.7611 26.7176 61.1715Z" fill="white"/>
<path d="M15.806 54.7066C15.2746 55.1281 14.6302 55.3826 13.9542 55.438C13.2781 55.4933 12.6009 55.347 12.008 55.0175C11.4151 54.688 10.9332 54.1901 10.6233 53.5868C10.3133 52.9835 10.1892 52.3018 10.2665 51.628C10.3439 50.9541 10.6193 50.3183 11.058 49.8009C11.4966 49.2836 12.0788 48.9079 12.7309 48.7214C13.3831 48.5348 14.0759 48.5458 14.7218 48.7529C15.3676 48.96 15.9376 49.354 16.3596 49.885C16.6442 50.2361 16.8559 50.6405 16.9822 51.0744C17.1086 51.5083 17.1471 51.9631 17.0956 52.4121C17.044 52.8611 16.9034 53.2953 16.682 53.6893C16.4606 54.0833 16.1628 54.4291 15.806 54.7066ZM12.4755 50.5148C12.1828 50.7556 11.9678 51.0775 11.8574 51.4401C11.7469 51.8026 11.746 52.1897 11.8547 52.5528C11.9634 52.9159 12.1769 53.2388 12.4684 53.481C12.7599 53.7232 13.1164 53.874 13.4933 53.9144C13.8701 53.9548 14.2505 53.883 14.5867 53.7081C14.9229 53.5331 15.2 53.2628 15.3832 52.931C15.5664 52.5992 15.6475 52.2207 15.6164 51.843C15.5853 51.4653 15.4434 51.1051 15.2085 50.8077C15.0541 50.601 14.8588 50.4283 14.6346 50.3005C14.4105 50.1727 14.1624 50.0925 13.9059 50.065C13.6493 50.0375 13.3899 50.0633 13.1437 50.1407C12.8976 50.2181 12.6701 50.3454 12.4755 50.5148Z" fill="white"/>
<path d="M9.83326 38.748L11.2481 38.4258L12.1034 42.1957L5.65907 43.6604L5.32513 42.1957L10.3547 41.0592L9.83326 38.748Z" fill="white"/>
<path d="M10.8937 28.9643L10.3869 31.3604L11.3331 31.8994L10.9903 33.5105L5 29.9514L5.39838 28.0679L12.3173 27.2419L11.9775 28.8559L10.8937 28.9643ZM9.42905 29.1137L6.89816 29.3656L9.10683 30.6252L9.42905 29.1137Z" fill="white"/>
<path d="M12.9354 16.3919L11.9512 17.7628L16.1136 20.7916L15.2349 22.0102L11.0724 18.9813L10.0735 20.3552L8.90179 19.4998L11.7842 15.5365L12.9354 16.3919Z" fill="white"/>
<path d="M23.9347 12.5633L24.6729 13.8141L21.0992 15.9232L17.7422 10.2404L21.2749 8.15482L22.0131 9.40561L19.781 10.7238L20.3376 11.6641L22.3676 10.466L23.094 11.6992L21.067 12.9002L21.6528 13.905L23.9347 12.5633Z" fill="white"/>
</svg>
